<?xml version="1.0" encoding="utf-8"?>
<!-- Generator: Adobe Illustrator 26.0.0, SVG Export Plug-In . SVG Version: 6.00 Build 0)  -->
<svg version="1.1" id="Layer_1" xmlns="http://www.w3.org/2000/svg" xmlns:xlink="http://www.w3.org/1999/xlink" x="0px" y="0px"
	 viewBox="0 0 539 558.54" style="enable-background:new 0 0 539 558.54;" xml:space="preserve">
<style type="text/css">
	.st0{fill:#007F3E;}
	.st1{fill:#231D70;}
	.st2{fill:#2E3192;}
	.st3{fill:#FFFFFF;}
	.st4{clip-path:url(#path2844_00000112628286557701558600000009411877721853541055_);fill:url(#SVGID_1_);}
</style>
<g>
	<g>
		<path class="st0" d="M17.46,539.54l13.67-14.51c2.25-2.38,3.79-4.41,4.61-6.09c0.82-1.68,1.28-3.37,1.39-5.05h1.02v18.72h-1.02
			c0-1.12-0.18-1.93-0.54-2.42c-0.36-0.49-0.76-0.74-1.2-0.74c-0.44,0-0.83,0.09-1.18,0.28c-0.35,0.18-1,0.79-1.95,1.81
			l-12.73,13.58h12.02c1.89,0,3.13-0.13,3.74-0.38c0.46-0.19,0.85-0.6,1.18-1.22c0.44-0.83,0.66-1.71,0.66-2.64v-1.34h1.02v16.77
			h-1.02v-1.39c0-1.63-0.45-2.81-1.35-3.54c-0.59-0.46-2-0.7-4.23-0.7H7.45c-1.89,0-3.14,0.13-3.77,0.38
			c-0.44,0.19-0.82,0.59-1.15,1.19c-0.44,0.85-0.66,1.74-0.66,2.67v1.39H0.85v-16.77h1.02v1.34c0,0.91,0.21,1.79,0.63,2.64
			c0.29,0.6,0.73,1.02,1.32,1.25s1.8,0.35,3.63,0.35h11.41c-0.35-0.39-1.51-1.71-3.49-3.98c-4.99-5.75-8.31-9.22-9.98-10.42
			c-0.73-0.52-1.37-0.78-1.93-0.78c-0.42,0-0.79,0.2-1.11,0.61c-0.32,0.41-0.48,1.09-0.48,2.06v0.9H0.85v-14.45h1.02
			c0.02,0.85,0.13,1.63,0.33,2.32c0.2,0.7,0.59,1.55,1.17,2.55c0.58,1.01,1.51,2.24,2.79,3.71c0.37,0.43,2.25,2.39,5.64,5.89
			L17.46,539.54z"/>
		<path class="st0" d="M0.85,515.17v-10.68l27.96-24.06H7.31c-2.29,0-3.72,0.27-4.29,0.81c-0.77,0.72-1.16,1.85-1.16,3.4V486H0.85
			v-13.7h1.02v1.39c0,1.66,0.48,2.84,1.43,3.54c0.59,0.43,1.93,0.64,4.01,0.64h31.43v1.04L8.72,504.87h22.96
			c2.29,0,3.72-0.26,4.29-0.78c0.77-0.74,1.15-1.87,1.15-3.4v-1.39h1.02v13.7h-1.02v-1.36c0-1.68-0.48-2.87-1.43-3.57
			c-0.59-0.42-1.92-0.64-4.01-0.64H5.75c-1.26,1.14-2.1,2.01-2.5,2.6c-0.4,0.59-0.78,1.46-1.13,2.6c-0.17,0.56-0.25,1.41-0.25,2.55
			H0.85z"/>
		<path class="st0" d="M0,447.26c0-5.11,1.84-9.53,5.51-13.28c3.68-3.74,8.26-5.62,13.76-5.62c5.66,0,10.37,1.89,14.11,5.66
			c3.74,3.77,5.61,8.34,5.61,13.7c0,5.42-1.82,9.97-5.47,13.65c-3.65,3.68-8.37,5.53-14.16,5.53c-5.92,0-10.75-2.13-14.49-6.38
			C1.62,456.83,0,452.41,0,447.26z M2.01,447.81c0,3.52,1.24,6.35,3.71,8.47c3.08,2.65,7.59,3.97,13.53,3.97
			c6.09,0,10.77-1.37,14.05-4.12c2.49-2.11,3.74-4.89,3.74-8.36c0-3.7-1.37-6.75-4.1-9.16c-2.73-2.41-7.04-3.61-12.92-3.61
			c-6.38,0-11.14,1.33-14.27,3.98C3.25,441.12,2.01,444.06,2.01,447.81z"/>
		<path class="st0" d="M0.85,370.45h1.02c0,1.03,0.17,1.86,0.52,2.5c0.35,0.64,1,1.25,1.95,1.83c0.64,0.39,2.17,1,4.59,1.83
			l30.05,10.97v1.16l-23.84,8.97l23.84,8.91v1.05L8.03,419.35c-2.31,0.87-3.68,1.42-4.1,1.65c-0.7,0.39-1.21,0.91-1.55,1.58
			c-0.34,0.67-0.51,1.57-0.51,2.71H0.85v-14.57h1.02v0.7c0,1.03,0.22,1.81,0.66,2.35c0.44,0.54,0.97,0.81,1.59,0.81
			c0.64,0,2.12-0.43,4.43-1.28l20.92-7.75l-17.79-6.53l-3.13,1.16l-2.5,0.93c-0.92,0.41-1.72,0.86-2.42,1.36
			c-0.35,0.25-0.64,0.56-0.88,0.93c-0.33,0.48-0.57,0.97-0.72,1.45c-0.11,0.37-0.17,0.95-0.17,1.74H0.85v-15.32h1.02v1.04
			c0,1.08,0.22,1.88,0.66,2.38c0.44,0.5,1.04,0.75,1.79,0.75c0.94,0,2.57-0.43,4.89-1.31l20.26-7.55l-20.54-7.49
			c-2.27-0.85-3.85-1.28-4.73-1.28c-0.42,0-0.82,0.14-1.18,0.42c-0.37,0.28-0.62,0.63-0.77,1.06c-0.26,0.74-0.39,1.69-0.39,2.87
			H0.85V370.45z"/>
		<path class="st0" d="M27.83,334.68l0.19-0.96l10.12,3.37v30.47h-1.02v-1.48c0-1.66-0.51-2.85-1.54-3.57
			c-0.59-0.41-1.94-0.61-4.07-0.61H7.45c-2.33,0-3.79,0.27-4.37,0.81c-0.81,0.75-1.21,1.88-1.21,3.37v1.48H0.85v-17.82h1.02
			c-0.02,2.09,0.17,3.56,0.55,4.4c0.39,0.84,0.87,1.42,1.46,1.73c0.59,0.31,1.99,0.46,4.21,0.46h23.43c1.52,0,2.57-0.16,3.13-0.46
			c0.39-0.23,0.67-0.59,0.85-1.07c0.18-0.48,0.27-1.99,0.27-4.53v-2.87c0-3.02-0.21-5.14-0.63-6.35c-0.42-1.22-1.17-2.33-2.24-3.34
			C31.83,336.69,30.14,335.69,27.83,334.68z"/>
		<path class="st0" d="M2.89,322.49h14.74v-8.65c0-2.24-0.32-3.74-0.96-4.5c-0.84-1.01-2.33-1.57-4.45-1.68v-1.07h12.98v1.07
			c-1.81,0.27-2.98,0.54-3.49,0.81c-0.64,0.35-1.15,0.92-1.51,1.71c-0.37,0.79-0.55,2.01-0.55,3.66v8.65h12.29
			c1.65,0,2.65-0.08,3.01-0.23c0.36-0.16,0.64-0.43,0.85-0.81c0.21-0.39,0.32-1.12,0.32-2.21v-6.67c0-2.22-0.15-3.84-0.44-4.85
			s-0.87-1.97-1.73-2.9c-1.14-1.2-2.85-2.43-5.14-3.69v-1.16l9.35,3.4v30.33h-1.02v-1.39c0-0.93-0.21-1.81-0.63-2.64
			c-0.29-0.62-0.73-1.04-1.32-1.26c-0.59-0.22-1.79-0.33-3.6-0.33H7.34c-2.36,0-3.82,0.25-4.37,0.75c-0.73,0.7-1.1,1.86-1.1,3.48
			v1.39H0.85v-30.33l8.17-0.43v1.13c-1.96,0.41-3.31,0.86-4.04,1.35c-0.73,0.49-1.29,1.22-1.68,2.19c-0.27,0.77-0.41,2.14-0.41,4.09
			V322.49z"/>
		<path class="st0" d="M38.14,295.13h-1.02v-1.48c0-1.66-0.5-2.84-1.51-3.54c-0.6-0.43-1.96-0.64-4.07-0.64H7.45
			c-2.33,0-3.79,0.27-4.37,0.81c-0.81,0.76-1.21,1.88-1.21,3.37v1.48H0.85v-16.02c0-5.88,0.63-10.35,1.9-13.42
			c1.26-3.07,3.37-5.53,6.32-7.4c2.95-1.87,6.36-2.8,10.23-2.8c5.19,0,9.52,1.66,13.01,4.99c3.89,3.73,5.83,9.42,5.83,17.06V295.13z
			 M35.44,283.9c0.51-2.46,0.77-4.52,0.77-6.18c0-4.49-1.49-8.21-4.48-11.17s-7.04-4.44-12.15-4.44c-5.15,0-9.21,1.48-12.18,4.44
			c-2.97,2.96-4.45,6.76-4.45,11.41c0,1.74,0.27,3.72,0.8,5.95H35.44z"/>
		<path class="st0" d="M0,216.74l11.77-1.02v1.02c-2.93,1.03-5.14,2.35-6.63,3.98c-2.14,2.34-3.22,5.35-3.22,9.03
			c0,5.01,1.88,8.82,5.64,11.43c3.17,2.19,6.95,3.28,11.33,3.28c3.56,0,6.8-0.73,9.73-2.18s5.08-3.35,6.45-5.7
			c1.37-2.35,2.05-4.76,2.05-7.24c0-1.45-0.17-2.85-0.52-4.21c-0.35-1.35-0.86-2.66-1.54-3.92H24.28c-1.87,0-3.09,0.15-3.67,0.45
			c-0.58,0.3-1.02,0.76-1.32,1.39c-0.3,0.63-0.45,1.74-0.45,3.32h-1.04v-15.24h1.04v0.73c0,1.51,0.48,2.54,1.43,3.11
			c0.68,0.39,2.02,0.58,4.01,0.58h11.41c1.14,2.23,1.97,4.42,2.5,6.59c0.53,2.17,0.8,4.58,0.8,7.23c0,7.6-2.31,13.38-6.93,17.32
			c-3.46,2.96-7.46,4.44-11.99,4.44c-3.28,0-6.42-0.83-9.43-2.5c-3.57-1.97-6.32-4.68-8.25-8.13C0.8,237.63,0,234.22,0,230.3
			c0-1.43,0.11-2.73,0.33-3.9s0.71-2.83,1.46-4.98c0.39-1.08,0.58-1.81,0.58-2.18c0-0.37-0.16-0.68-0.48-0.94
			c-0.32-0.26-0.95-0.42-1.88-0.48V216.74z"/>
		<path class="st0" d="M2.89,197.88h14.74v-8.65c0-2.24-0.32-3.74-0.96-4.5c-0.84-1.01-2.33-1.57-4.45-1.68v-1.07h12.98v1.07
			c-1.81,0.27-2.98,0.54-3.49,0.81c-0.64,0.35-1.15,0.92-1.51,1.71c-0.37,0.79-0.55,2.01-0.55,3.66v8.65h12.29
			c1.65,0,2.65-0.08,3.01-0.23c0.36-0.15,0.64-0.43,0.85-0.81c0.21-0.39,0.32-1.12,0.32-2.21v-6.67c0-2.22-0.15-3.84-0.44-4.85
			s-0.87-1.97-1.73-2.9c-1.14-1.2-2.85-2.43-5.14-3.69v-1.16l9.35,3.4v30.33h-1.02v-1.39c0-0.93-0.21-1.81-0.63-2.64
			c-0.29-0.62-0.73-1.04-1.32-1.26c-0.59-0.22-1.79-0.33-3.6-0.33H7.34c-2.36,0-3.82,0.25-4.37,0.75c-0.73,0.7-1.1,1.86-1.1,3.48
			v1.39H0.85v-30.33l8.17-0.44v1.13c-1.96,0.41-3.31,0.86-4.04,1.35c-0.73,0.49-1.29,1.22-1.68,2.19c-0.27,0.77-0.41,2.14-0.41,4.09
			V197.88z"/>
	</g>
	<g>
		<path class="st0" d="M246.32,38.06L231.58,6.04v25.43c0,2.34,0.25,3.8,0.76,4.38c0.69,0.79,1.79,1.18,3.29,1.18h1.35v1.04h-13.27
			v-1.04h1.35c1.61,0,2.76-0.49,3.43-1.46c0.41-0.6,0.62-1.97,0.62-4.1V6.6c0-1.68-0.19-2.9-0.56-3.65c-0.26-0.54-0.75-1-1.45-1.36
			c-0.7-0.37-1.83-0.55-3.39-0.55V0l10.8,0l13.83,29.78L261.95,0h10.8v1.04h-1.32c-1.63,0-2.78,0.49-3.46,1.46
			c-0.41,0.6-0.62,1.96-0.62,4.1v24.87c0,2.34,0.26,3.8,0.79,4.38c0.69,0.79,1.79,1.18,3.29,1.18h1.32v1.04h-16.19v-1.04h1.35
			c1.63,0,2.77-0.49,3.43-1.46c0.41-0.6,0.62-1.97,0.62-4.1V6.04l-14.71,32.03H246.32z"/>
		<path class="st0" d="M301.4,0l13.3,0v1.04h-0.73c-0.49,0-1.2,0.22-2.14,0.65c-0.94,0.43-1.79,1.05-2.56,1.85
			c-0.77,0.8-1.72,2.11-2.84,3.93l-9.19,14.46v9.54c0,2.34,0.26,3.8,0.79,4.38c0.71,0.79,1.84,1.18,3.37,1.18h1.24v1.04h-16.2v-1.04
			h1.35c1.61,0,2.76-0.49,3.43-1.46c0.41-0.6,0.62-1.97,0.62-4.1v-9.01L281.38,6.51c-1.24-1.87-2.08-3.04-2.52-3.51
			c-0.44-0.47-1.35-1.03-2.74-1.68c-0.38-0.19-0.92-0.28-1.63-0.28V0l16.31,0v1.04h-0.84c-0.88,0-1.69,0.21-2.43,0.62
			c-0.74,0.41-1.11,1.03-1.11,1.85c0,0.67,0.57,1.89,1.71,3.65l7.96,12.27l7.48-11.73c1.12-1.76,1.69-3.07,1.69-3.93
			c0-0.52-0.14-0.99-0.41-1.4c-0.27-0.41-0.66-0.73-1.17-0.97c-0.51-0.23-1.27-0.35-2.28-0.35V0z"/>
	</g>
	<g>
		<path class="st0" d="M499.7,501.04h1.05c0,1.08,0.18,1.95,0.54,2.62c0.36,0.67,1.03,1.31,2.01,1.92c0.66,0.4,2.24,1.04,4.73,1.92
			l30.97,11.5v1.22l-24.57,9.4l24.57,9.34v1.09l-31.91,12.26c-2.38,0.91-3.79,1.49-4.22,1.73c-0.72,0.41-1.25,0.96-1.6,1.66
			c-0.35,0.7-0.52,1.65-0.52,2.84h-1.05v-15.27h1.05V544c0,1.08,0.23,1.9,0.68,2.46c0.45,0.57,1,0.85,1.64,0.85
			c0.66,0,2.18-0.45,4.56-1.34l21.56-8.12L510.86,531l-3.23,1.22l-2.58,0.97c-0.94,0.43-1.78,0.9-2.49,1.43
			c-0.36,0.26-0.66,0.59-0.91,0.97c-0.34,0.51-0.59,1.01-0.74,1.52c-0.11,0.39-0.17,0.99-0.17,1.83h-1.05v-16.06h1.05v1.1
			c0,1.14,0.23,1.97,0.68,2.49c0.45,0.53,1.07,0.79,1.84,0.79c0.96,0,2.64-0.46,5.04-1.37l20.88-7.91l-21.17-7.85
			c-2.34-0.89-3.97-1.34-4.87-1.34c-0.43,0-0.84,0.15-1.22,0.44c-0.38,0.29-0.64,0.66-0.79,1.11c-0.26,0.77-0.4,1.77-0.4,3.01h-1.05
			V501.04z"/>
		<path class="st0" d="M501.8,461.22h15.19v-8.08c0-2.1-0.33-3.5-0.99-4.2c-0.87-0.94-2.4-1.46-4.59-1.57v-1h13.37v1
			c-1.87,0.25-3.07,0.51-3.6,0.76c-0.66,0.32-1.18,0.86-1.56,1.6c-0.38,0.74-0.57,1.88-0.57,3.42v8.08h12.67
			c1.7,0,2.73-0.07,3.1-0.22c0.37-0.14,0.66-0.4,0.88-0.76c0.22-0.36,0.33-1.05,0.33-2.06v-6.24c0-2.08-0.15-3.59-0.45-4.53
			c-0.3-0.94-0.9-1.84-1.79-2.71c-1.17-1.12-2.94-2.27-5.3-3.44v-1.08l9.63,3.17v28.34h-1.05v-1.3c0-0.87-0.22-1.69-0.65-2.47
			c-0.3-0.58-0.76-0.97-1.36-1.18c-0.6-0.21-1.84-0.31-3.71-0.31h-24.96c-2.44,0-3.94,0.23-4.51,0.71
			c-0.76,0.65-1.13,1.74-1.13,3.25v1.3h-1.05v-28.34l8.42-0.41V444c-2.02,0.38-3.41,0.8-4.17,1.26c-0.75,0.46-1.33,1.14-1.73,2.05
			c-0.28,0.72-0.43,2-0.43,3.82V461.22z"/>
		<path class="st0" d="M525.26,385.72v14.24l6.06,2.5c1.49,0.61,2.61,0.92,3.34,0.92c0.59,0,1.1-0.27,1.54-0.8
			c0.44-0.53,0.73-1.69,0.86-3.46h1.05v11.58h-1.05c-0.28-1.54-0.65-2.53-1.1-2.98c-0.91-0.92-2.75-1.94-5.53-3.07l-31.62-12.94
			v-0.95l31.96-12.8c2.57-1.03,4.24-1.97,5-2.81s1.2-2.01,1.29-3.51h1.05v14.51h-1.05c-0.07-1.46-0.33-2.45-0.77-2.97
			c-0.43-0.51-0.96-0.77-1.59-0.77c-0.83,0-2.14,0.36-3.94,1.09L525.26,385.72z M523.16,386.48l-15.53,6.24l15.53,6.4V386.48z"/>
		<path class="st0" d="M520.13,331.86h11.19c2.42,0,3.92-0.25,4.5-0.76c0.83-0.69,1.25-1.73,1.25-3.12v-1.41h1.05v15.76h-1.05v-1.38
			c0-1.55-0.53-2.67-1.59-3.34c-0.59-0.36-1.97-0.54-4.16-0.54H506.5c-2.42,0-3.92,0.24-4.51,0.73c-0.83,0.7-1.25,1.75-1.25,3.15
			v1.38h-1.05v-13.48c0-3.29,0.35-5.89,1.06-7.78c0.71-1.9,1.9-3.5,3.58-4.8c1.68-1.3,3.67-1.95,5.98-1.95
			c3.14,0,5.69,0.99,7.65,2.97c1.97,1.98,2.95,4.78,2.95,8.39c0,0.89-0.07,1.84-0.2,2.88C520.59,329.58,520.39,330.69,520.13,331.86
			z M518.51,331.86c0.19-0.96,0.33-1.81,0.43-2.55c0.09-0.74,0.14-1.37,0.14-1.9c0-1.88-0.76-3.5-2.28-4.87
			c-1.52-1.37-3.49-2.05-5.91-2.05c-1.66,0-3.21,0.32-4.63,0.98c-1.43,0.65-2.49,1.57-3.2,2.77c-0.71,1.19-1.06,2.55-1.06,4.07
			c0,0.92,0.18,2.11,0.54,3.55H518.51z"/>
		<path class="st0" d="M498.82,260.55c0-5.43,1.89-10.13,5.68-14.11c3.79-3.98,8.51-5.97,14.18-5.97c5.84,0,10.68,2,14.54,6.02
			c3.85,4.01,5.78,8.86,5.78,14.56c0,5.76-1.88,10.6-5.64,14.52c-3.76,3.92-8.62,5.88-14.59,5.88c-6.1,0-11.08-2.26-14.93-6.79
			C500.49,270.72,498.82,266.02,498.82,260.55z M500.89,261.13c0,3.74,1.27,6.75,3.82,9.01c3.17,2.82,7.82,4.23,13.94,4.23
			c6.27,0,11.1-1.46,14.48-4.38c2.57-2.24,3.85-5.2,3.85-8.89c0-3.93-1.41-7.17-4.22-9.73c-2.81-2.56-7.25-3.84-13.32-3.84
			c-6.57,0-11.48,1.41-14.71,4.23C502.17,254.02,500.89,257.14,500.89,261.13z"/>
		<path class="st0" d="M499.7,208.82v-9.98l28.82-22.48h-22.16c-2.36,0-3.83,0.25-4.42,0.76c-0.79,0.67-1.19,1.73-1.19,3.17v1.27
			h-1.05v-12.8h1.05v1.3c0,1.56,0.49,2.66,1.47,3.31c0.6,0.4,1.98,0.6,4.14,0.6h32.39v0.98l-30.94,24.25h23.66
			c2.36,0,3.84-0.24,4.42-0.73c0.79-0.69,1.19-1.75,1.19-3.17v-1.3h1.05v12.8h-1.05v-1.27c0-1.57-0.49-2.69-1.47-3.34
			c-0.6-0.4-1.98-0.6-4.14-0.6h-26.72c-1.3,1.07-2.16,1.88-2.58,2.43c-0.42,0.55-0.8,1.36-1.16,2.43c-0.17,0.52-0.26,1.32-0.26,2.39
			H499.7z"/>
	</g>
	<g>
		<path class="st1" d="M109.88,387.44l-6.46,14.53l-1.11-0.72c0.03-0.3,0.04-0.54,0.04-0.72c0-1.02-0.77-2.12-2.3-3.3
			c-4.7-3.74-10.22-5.6-16.56-5.6c-2.8,0-5.27,0.39-7.41,1.18c-1.56,0.6-2.82,1.5-3.78,2.7c-0.96,1.21-1.45,2.52-1.45,3.93
			c0,2.32,1.23,3.9,3.68,4.74c1.27,0.42,3.99,0.87,8.16,1.36l6.22,0.72c3.7,0.45,6.69,1.07,8.97,1.85c2.28,0.78,4.31,1.88,6.08,3.29
			c1.8,1.48,3.22,3.42,4.26,5.83c1.04,2.41,1.56,4.99,1.56,7.72c0,4.33-1.23,8.19-3.68,11.56c-2.22,3.07-5.67,5.35-10.34,6.82
			c-3.49,1.11-7.22,1.67-11.21,1.67c-7.16,0-14.22-1.96-21.2-5.88c-1.48-0.78-2.36-1.18-2.65-1.18c-0.34,0-0.88,0.33-1.62,0.99
			l-1.15-0.68l5.86-15.14l1.15,0.63c0,0.27,0,0.47,0,0.59c0,1.36,0.57,2.61,1.7,3.75c1.72,1.75,4.37,3.25,7.96,4.52
			c3.59,1.27,7,1.9,10.22,1.9c3.51,0,6.51-0.68,8.99-2.03c1.37-0.75,2.47-1.76,3.29-3c0.82-1.25,1.23-2.55,1.23-3.91
			c0-2.04-0.96-3.5-2.89-4.38c-1.35-0.6-4.07-1.16-8.16-1.66l-6.1-0.72c-4.09-0.48-6.99-0.94-8.68-1.38
			c-1.69-0.44-3.38-1.14-5.07-2.11c-2.4-1.36-4.29-3.39-5.67-6.1c-1.24-2.44-1.86-5.24-1.86-8.41c0-5.22,1.57-9.53,4.71-12.93
			c4.12-4.49,10.3-6.74,18.54-6.74c3.46,0,6.68,0.4,9.67,1.21c2.98,0.8,6.71,2.27,11.17,4.42c1.53,0.69,2.47,1.05,2.81,1.05
			c0.55,0,1.2-0.35,1.94-1.05L109.88,387.44z"/>
		<path class="st1" d="M120.54,439.17v-52.24c0-0.9-0.18-1.6-0.55-2.08c-0.37-0.48-1.03-0.87-1.98-1.18v-1.45h16.88v1.45
			c-0.95,0.27-1.61,0.66-1.98,1.15c-0.37,0.5-0.55,1.2-0.55,2.1v52.24c0,0.93,0.19,1.65,0.57,2.15c0.38,0.5,1.04,0.88,1.96,1.15
			v1.45H118v-1.45c0.95-0.3,1.61-0.69,1.98-1.18C120.35,440.81,120.54,440.1,120.54,439.17z"/>
		<path class="st1" d="M197.07,435.96l4.2,4.96c0.95,1.14,1.59,1.85,1.92,2.1c0.33,0.26,0.72,0.38,1.17,0.38
			c0.37,0,0.98-0.2,1.82-0.59l0.83,1.08l-11.59,12.04l-0.87-1.08c0.53-0.99,0.79-1.73,0.79-2.21c0-0.54-0.74-1.82-2.22-3.84
			l-4.67-6.51c-3.91,1.81-8.67,2.71-14.27,2.71c-9.22,0-16.6-2.91-22.12-8.72c-2.96-3.1-5.21-6.82-6.74-11.16
			c-1.35-3.83-2.02-7.85-2.02-12.07c0-6.18,1.4-11.81,4.2-16.9c5.44-10,14.42-15,26.92-15c9.38,0,16.82,2.91,22.32,8.72
			c2.96,3.1,5.21,6.81,6.74,11.12c1.35,3.83,2.02,7.85,2.02,12.07C205.52,422.12,202.7,429.75,197.07,435.96z M189.27,426.97
			c2.8-3.98,4.2-8.62,4.2-13.95c0-6.65-2.04-12.04-6.11-16.16c-3.41-3.49-7.72-5.23-12.93-5.23c-5.24,0-9.56,1.75-12.97,5.23
			c-4.07,4.16-6.11,9.56-6.11,16.21c0,6.68,2.03,12.08,6.11,16.21c3.44,3.49,7.77,5.23,13.01,5.23c2.49,0,4.92-0.48,7.3-1.45
			c-0.29-0.42-0.54-0.78-0.75-1.08c-2.81-4.1-6.12-6.66-9.93-7.68v-1.27c1.91-1.69,4.07-2.53,6.51-2.53c1.75,0,3.49,0.48,5.22,1.45
			C184.55,422.92,186.7,424.59,189.27,426.97z"/>
		<path class="st1" d="M253.61,428.19h-24.58l-3.64,8.68c-0.5,1.21-0.75,2.15-0.75,2.85c0,1.33,0.88,2.24,2.65,2.76v1.45H209.4
			v-1.45c1.06-0.24,1.86-0.66,2.42-1.27c0.55-0.6,1.19-1.78,1.9-3.53l19.89-47.41c0.63-1.51,0.95-2.71,0.95-3.62
			c0-1.39-0.77-2.38-2.3-2.98v-1.45h19.18v1.45c-1.56,0.51-2.34,1.4-2.34,2.67c0,0.87,0.25,1.87,0.75,2.98l20.6,47.54
			c0.87,2.02,1.64,3.4,2.3,4.14s1.55,1.23,2.65,1.47v1.45H255.5v-1.45c1.75-0.33,2.62-1.27,2.62-2.8c0-0.63-0.26-1.57-0.79-2.8
			L253.61,428.19z M250.22,419.74l-8.77-21.97l-8.91,21.97H250.22z"/>
		<path class="st1" d="M294.34,418.74v20.47c0,0.9,0.19,1.6,0.57,2.1c0.38,0.5,1.04,0.88,1.96,1.15v1.45H280v-1.45
			c0.95-0.3,1.61-0.69,1.98-1.18s0.55-1.18,0.55-2.08v-52.24c0-0.93-0.18-1.64-0.55-2.12c-0.37-0.48-1.03-0.87-1.98-1.18v-1.45
			h33.83c4.12,0,7.39,0.27,9.81,0.81c2.42,0.54,4.52,1.49,6.32,2.85c2.09,1.57,3.64,3.69,4.68,6.37c0.98,2.59,1.47,5.36,1.47,8.32
			c0,10.06-4.9,15.95-14.7,17.67l10.5,17.04c1.85,2.98,3.2,4.9,4.06,5.76c0.86,0.86,1.91,1.33,3.15,1.42v1.45h-19.54v-1.45
			c1.34-0.24,2.02-0.78,2.02-1.63c0-0.54-0.62-1.85-1.86-3.93l-10.95-18.17H294.34z M294.34,408.57h18.22c2.69,0,4.6-0.09,5.71-0.27
			c1.11-0.18,2.13-0.56,3.05-1.13c2.01-1.24,3.01-3.46,3.01-6.69s-1-5.45-3.01-6.69c-0.95-0.6-1.96-0.99-3.03-1.15
			c-1.07-0.17-2.98-0.25-5.72-0.25h-18.22V408.57z"/>
		<path class="st1" d="M385.23,428.19h-24.58l-3.64,8.68c-0.5,1.21-0.75,2.15-0.75,2.85c0,1.33,0.88,2.24,2.65,2.76v1.45h-17.89
			v-1.45c1.06-0.24,1.86-0.66,2.42-1.27c0.55-0.6,1.19-1.78,1.9-3.53l19.89-47.41c0.63-1.51,0.95-2.71,0.95-3.62
			c0-1.39-0.77-2.38-2.3-2.98v-1.45h19.18v1.45c-1.56,0.51-2.34,1.4-2.34,2.67c0,0.87,0.25,1.87,0.75,2.98l20.6,47.54
			c0.87,2.02,1.64,3.4,2.3,4.14s1.55,1.23,2.65,1.47v1.45h-19.91v-1.45c1.75-0.33,2.62-1.27,2.62-2.8c0-0.63-0.26-1.57-0.79-2.8
			L385.23,428.19z M381.83,419.74l-8.77-21.97l-8.91,21.97H381.83z"/>
		<path class="st1" d="M457.14,416.98h-31.18v22.24c0,0.9,0.19,1.6,0.57,2.1c0.38,0.5,1.04,0.88,1.96,1.15v1.45h-16.88v-1.45
			c0.95-0.3,1.61-0.69,1.98-1.18s0.55-1.18,0.55-2.08v-52.29c0-0.9-0.18-1.6-0.55-2.08c-0.37-0.48-1.03-0.87-1.98-1.18v-1.45h16.88
			v1.45c-0.95,0.27-1.61,0.66-1.98,1.15c-0.37,0.5-0.55,1.2-0.55,2.1v19.89h31.18v-19.89c0-0.9-0.18-1.6-0.55-2.1
			s-1.03-0.88-1.98-1.15v-1.45h16.88v1.45c-0.95,0.3-1.61,0.69-1.98,1.18c-0.37,0.48-0.55,1.18-0.55,2.08v52.29
			c0,0.9,0.18,1.6,0.55,2.08c0.37,0.48,1.03,0.87,1.98,1.18v1.45H454.6v-1.45c0.92-0.27,1.58-0.66,1.96-1.15s0.57-1.2,0.57-2.1
			V416.98z"/>
	</g>
	<rect x="50.36" y="464.93" class="st0" width="436.81" height="3.96"/>
	<rect x="50.36" y="479.71" class="st0" width="436.81" height="3.96"/>
	<rect x="50.36" y="494.5" class="st0" width="436.81" height="3.96"/>
	<rect x="50.36" y="509.28" class="st0" width="436.81" height="3.96"/>
	<rect x="50.36" y="524.06" class="st0" width="436.81" height="3.96"/>
	<rect x="50.36" y="538.84" class="st0" width="436.81" height="3.96"/>
	<rect x="50.36" y="553.63" class="st0" width="436.81" height="3.96"/>
	<rect x="179.74" y="48.48" width="177.98" height="3.96"/>
	<polygon class="st0" points="429.99,371.44 426.02,371.44 426.02,202.11 425.31,200.3 335.78,110.91 203.13,110.08 111.96,201.11 
		111.86,201.87 111.86,371.44 107.89,371.44 107.89,201.62 108.19,199.26 108.67,198.78 201.5,106.11 337.43,106.96 428.71,198.09 
		429.99,201.37 	"/>
	<polygon class="st0" points="486.67,371.44 482.7,371.44 482.7,177.1 358.07,52.67 180.49,52.44 55.66,177.07 55.46,177.24 
		55.46,371.44 51.5,371.44 51.5,175.46 52.98,174.15 178.85,48.48 359.72,48.71 360.3,49.29 485.68,174.47 486.67,175.62 	"/>
	<rect x="184.2" y="60.25" width="169.59" height="1.98"/>
	<rect x="196.53" y="89.57" width="144.93" height="1.98"/>
	<rect x="200.14" y="98.02" width="137.71" height="1.98"/>
	<polygon class="st0" points="475.76,371.44 473.77,371.44 473.77,184.76 472.89,181.67 353.45,62.42 184.93,62.42 65.52,181.63 
		64.96,184.71 64.96,371.44 62.97,371.44 62.97,184.53 63.69,180.67 184.11,60.44 354.27,60.44 474.66,180.63 475.76,184.62 	"/>
	<polygon class="st0" points="465.98,371.44 464,371.44 464,189.03 462.49,186.04 349.2,72.93 189.18,72.93 75.96,185.97 
		74.73,188.53 74.73,371.44 72.75,371.44 72.75,188.08 74.32,184.81 188.36,70.95 350.03,70.95 464.12,184.86 465.98,188.56 	"/>
	<polygon class="st0" points="446.92,371.44 444.94,371.44 444.94,196.1 444.49,194.78 341.4,91.85 196.98,91.85 93.79,194.87 
		93.79,371.44 91.81,371.44 91.81,194.05 196.16,89.87 342.22,89.87 446.23,193.71 446.92,195.78 	"/>
	<polygon class="st0" points="455.81,371.44 453.83,371.44 453.83,193.28 452.46,189.38 345.75,82.84 192.64,82.84 84.9,190.4 
		84.9,371.44 82.92,371.44 82.92,190.69 82.36,190.14 191.81,80.86 346.57,80.86 454.18,188.3 455.81,192.94 	"/>
	<polygon class="st0" points="437.92,371.44 435.94,371.44 435.94,198.86 435.79,198.05 337.97,100.38 200.42,100.38 103.8,196.84 
		102.79,198.99 102.79,371.44 100.81,371.44 100.81,198.55 102.15,195.69 199.59,98.4 338.79,98.4 437.64,197.09 437.92,198.77 	"/>
	<polygon class="st1" points="124.33,371.05 125.03,371.75 354.52,142.64 353.81,141.94 	"/>
	<polygon class="st1" points="353.85,141.9 353.81,141.94 354.52,142.64 354.55,142.6 	"/>
	<polygon class="st1" points="132.57,371.05 133.28,371.75 358.68,146.72 357.97,146.02 	"/>
	<polygon class="st1" points="358.15,145.85 357.97,146.02 358.68,146.72 358.85,146.54 	"/>
	<polygon class="st1" points="140.82,371.05 141.52,371.75 362.84,150.8 362.13,150.1 	"/>
	<polygon class="st1" points="362.31,149.93 362.13,150.1 362.84,150.8 363.01,150.62 	"/>
	<polygon class="st1" points="149.07,371.05 149.77,371.75 367,154.88 366.29,154.18 	"/>
	<polygon class="st1" points="366.47,154.01 366.29,154.18 367,154.88 367.17,154.7 	"/>
	<polygon class="st1" points="157.32,371.05 158.02,371.75 371.16,158.96 370.45,158.26 	"/>
	<polygon class="st1" points="370.63,158.09 370.45,158.26 371.16,158.96 371.33,158.78 	"/>
	<polygon class="st1" points="165.56,371.05 166.26,371.75 375.32,163.04 374.61,162.34 	"/>
	<polygon class="st1" points="374.79,162.17 374.61,162.34 375.32,163.04 375.49,162.86 	"/>
	<polygon class="st1" points="173.81,371.05 174.51,371.75 379.48,167.12 378.77,166.42 	"/>
	<polygon class="st1" points="378.95,166.25 378.77,166.42 379.48,167.12 379.66,166.94 	"/>
	<polygon class="st1" points="182.06,371.05 182.76,371.75 383.64,171.2 382.93,170.5 	"/>
	<polygon class="st1" points="383.11,170.33 382.93,170.5 383.64,171.2 383.82,171.02 	"/>
	<polygon class="st1" points="190.31,371.05 191.01,371.75 387.8,175.28 387.09,174.58 	"/>
	<polygon class="st1" points="387.27,174.41 387.09,174.58 387.8,175.28 387.98,175.1 	"/>
	<polygon class="st1" points="198.55,371.05 199.25,371.75 391.96,179.36 391.25,178.66 	"/>
	<polygon class="st1" points="391.43,178.49 391.25,178.66 391.96,179.36 392.14,179.18 	"/>
	<polygon class="st1" points="206.8,371.05 207.5,371.75 396.12,183.44 395.41,182.74 	"/>
	<polygon class="st1" points="395.59,182.57 395.41,182.74 396.12,183.44 396.3,183.26 	"/>
	<polygon class="st1" points="215.05,371.05 215.75,371.75 400.28,187.52 399.58,186.82 	"/>
	<polygon class="st1" points="399.75,186.65 399.58,186.82 400.28,187.52 400.46,187.34 	"/>
	<polygon class="st1" points="223.29,371.05 224,371.75 404.44,191.6 403.74,190.9 	"/>
	<polygon class="st1" points="403.91,190.73 403.74,190.9 404.44,191.6 404.62,191.42 	"/>
	<polygon class="st1" points="231.54,371.05 232.24,371.75 408.6,195.68 407.9,194.98 	"/>
	<polygon class="st1" points="408.07,194.81 407.9,194.98 408.6,195.68 408.78,195.5 	"/>
	<polygon class="st1" points="239.79,371.05 240.49,371.75 412.76,199.76 412.06,199.06 	"/>
	<polygon class="st1" points="412.23,198.89 412.06,199.06 412.76,199.76 412.94,199.58 	"/>
	<polygon class="st1" points="416.22,203.14 248.03,371.05 248.74,371.75 416.84,203.92 416.84,203.75 	"/>
	<polygon class="st1" points="417.09,203.65 416.39,202.97 416.22,203.14 416.84,203.75 416.84,203.92 417.09,203.68 	"/>
	<polygon class="st1" points="256.28,371.05 256.98,371.75 416.84,212.16 416.84,210.76 	"/>
	<polygon class="st1" points="417.09,210.51 416.84,210.76 416.84,212.16 417.09,211.91 	"/>
	<polygon class="st1" points="264.53,371.05 265.23,371.75 416.84,220.39 416.84,218.99 	"/>
	<polygon class="st1" points="417.09,218.74 416.84,218.99 416.84,220.39 417.09,220.14 	"/>
	<polygon class="st1" points="272.78,371.05 273.48,371.75 416.84,228.62 416.84,227.22 	"/>
	<polygon class="st1" points="417.09,226.98 416.84,227.22 416.84,228.62 417.09,228.38 	"/>
	<polygon class="st1" points="281.02,371.05 281.73,371.75 416.84,236.86 416.84,235.46 	"/>
	<polygon class="st1" points="417.09,235.21 416.84,235.46 416.84,236.86 417.09,236.61 	"/>
	<polygon class="st1" points="289.27,371.05 289.97,371.75 416.84,245.09 416.84,243.69 	"/>
	<polygon class="st1" points="417.09,243.44 416.84,243.69 416.84,245.09 417.09,244.84 	"/>
	<polygon class="st1" points="297.52,371.05 298.22,371.75 416.84,253.33 416.84,251.93 	"/>
	<polygon class="st1" points="417.09,251.68 416.84,251.93 416.84,253.33 417.09,253.08 	"/>
	<polygon class="st1" points="305.77,371.05 306.47,371.75 416.84,261.56 416.84,260.16 	"/>
	<polygon class="st1" points="417.09,259.91 416.84,260.16 416.84,261.56 417.09,261.31 	"/>
	<polygon class="st1" points="314.01,371.05 314.71,371.75 416.84,269.79 416.84,268.39 	"/>
	<polygon class="st1" points="417.09,268.15 416.84,268.39 416.84,269.79 417.09,269.55 	"/>
	<polygon class="st1" points="322.26,371.05 322.96,371.75 416.84,278.03 416.84,276.63 	"/>
	<polygon class="st1" points="417.09,276.38 416.84,276.63 416.84,278.03 417.09,277.78 	"/>
	<polygon class="st1" points="330.51,371.05 331.21,371.75 416.84,286.26 416.84,284.86 	"/>
	<polygon class="st1" points="417.09,284.61 416.84,284.86 416.84,286.26 417.09,286.01 	"/>
	<polygon class="st1" points="338.75,371.05 339.46,371.75 416.84,294.5 416.84,293.09 	"/>
	<polygon class="st1" points="417.09,292.85 416.84,293.09 416.84,294.5 417.09,294.25 	"/>
	<polygon class="st1" points="347,371.05 347.7,371.75 416.84,302.73 416.84,301.33 	"/>
	<polygon class="st1" points="417.09,301.08 416.84,301.33 416.84,302.73 417.09,302.48 	"/>
	<polygon class="st1" points="355.25,371.05 355.95,371.75 416.84,310.96 416.84,309.56 	"/>
	<polygon class="st1" points="417.09,309.31 416.84,309.56 416.84,310.96 417.09,310.71 	"/>
	<polygon class="st1" points="363.5,371.05 364.2,371.75 416.84,319.2 416.84,317.8 	"/>
	<polygon class="st1" points="417.09,317.55 416.84,317.8 416.84,319.2 417.09,318.95 	"/>
	<polygon class="st1" points="371.74,371.05 372.44,371.75 416.84,327.43 416.84,326.03 	"/>
	<polygon class="st1" points="417.09,325.78 416.84,326.03 416.84,327.43 417.09,327.18 	"/>
	<polygon class="st1" points="379.99,371.05 380.69,371.75 416.84,335.66 416.84,334.26 	"/>
	<polygon class="st1" points="417.09,334.02 416.84,334.26 416.84,335.66 417.09,335.42 	"/>
	<polygon class="st1" points="388.24,371.05 388.94,371.75 416.84,343.9 416.84,342.5 	"/>
	<polygon class="st1" points="417.09,342.25 416.84,342.5 416.84,343.9 417.09,343.65 	"/>
	<polygon class="st1" points="396.48,371.05 397.19,371.75 416.84,352.13 416.84,350.73 	"/>
	<polygon class="st1" points="417.09,350.48 416.84,350.73 416.84,352.13 417.09,351.88 	"/>
	<polygon class="st1" points="416.28,359.52 416.84,360.08 416.84,358.96 	"/>
	<polygon class="st1" points="417.09,360.12 417.09,358.72 416.84,358.96 416.84,360.08 416.98,360.22 	"/>
	<g>
		<line class="st2" x1="405.08" y1="371.4" x2="416.63" y2="359.87"/>
		<polygon class="st1" points="405.43,371.75 404.73,371.05 416.28,359.52 416.98,360.22 		"/>
	</g>
	<polygon class="st1" points="120.27,209.5 120.27,210.9 212.74,118.57 211.34,118.57 	"/>
	<polygon class="st1" points="120.02,209.74 120.02,211.14 120.27,210.9 120.27,209.5 	"/>
	<polygon class="st1" points="211.59,118.32 211.34,118.57 212.74,118.57 212.99,118.32 	"/>
	<polygon class="st1" points="120.27,217.73 120.27,219.13 220.99,118.57 219.59,118.57 	"/>
	<polygon class="st1" points="219.84,118.32 219.59,118.57 220.99,118.57 221.24,118.32 	"/>
	<polygon class="st1" points="120.02,217.98 120.02,219.38 120.27,219.13 120.27,217.73 	"/>
	<polygon class="st1" points="120.27,225.96 120.27,227.36 229.24,118.57 227.83,118.57 	"/>
	<polygon class="st1" points="228.08,118.32 227.83,118.57 229.24,118.57 229.49,118.32 	"/>
	<polygon class="st1" points="120.02,226.21 120.02,227.61 120.27,227.36 120.27,225.96 	"/>
	<polygon class="st1" points="120.27,234.2 120.27,235.6 237.49,118.57 236.08,118.57 	"/>
	<polygon class="st1" points="236.33,118.32 236.08,118.57 237.49,118.57 237.73,118.32 	"/>
	<polygon class="st1" points="120.02,234.44 120.02,235.84 120.27,235.6 120.27,234.2 	"/>
	<polygon class="st1" points="120.27,242.43 120.27,243.83 245.73,118.57 244.33,118.57 	"/>
	<polygon class="st1" points="120.02,242.68 120.02,244.08 120.27,243.83 120.27,242.43 	"/>
	<polygon class="st1" points="244.58,118.32 244.33,118.57 245.73,118.57 245.98,118.32 	"/>
	<polygon class="st1" points="120.27,250.66 120.27,252.06 253.98,118.57 252.58,118.57 	"/>
	<polygon class="st1" points="252.82,118.32 252.58,118.57 253.98,118.57 254.23,118.32 	"/>
	<polygon class="st1" points="120.02,250.91 120.02,252.31 120.27,252.06 120.27,250.66 	"/>
	<polygon class="st1" points="120.27,258.9 120.27,260.3 262.23,118.57 260.82,118.57 	"/>
	<polygon class="st1" points="120.02,259.15 120.02,260.55 120.27,260.3 120.27,258.9 	"/>
	<polygon class="st1" points="261.07,118.32 260.82,118.57 262.23,118.57 262.47,118.32 	"/>
	<polygon class="st1" points="120.27,267.13 120.27,268.53 270.47,118.57 269.07,118.57 	"/>
	<polygon class="st1" points="120.02,267.38 120.02,268.78 120.27,268.53 120.27,267.13 	"/>
	<polygon class="st1" points="269.32,118.32 269.07,118.57 270.47,118.57 270.72,118.32 	"/>
	<polygon class="st1" points="120.27,275.37 120.27,276.77 278.72,118.57 277.32,118.57 	"/>
	<polygon class="st1" points="277.57,118.32 277.32,118.57 278.72,118.57 278.97,118.32 	"/>
	<polygon class="st1" points="120.02,275.61 120.02,277.01 120.27,276.77 120.27,275.37 	"/>
	<polygon class="st1" points="120.27,283.6 120.27,285 286.97,118.57 285.57,118.57 	"/>
	<polygon class="st1" points="120.02,283.85 120.02,285.25 120.27,285 120.27,283.6 	"/>
	<polygon class="st1" points="285.81,118.32 285.57,118.57 286.97,118.57 287.22,118.32 	"/>
	<polygon class="st1" points="120.27,291.83 120.27,293.23 295.22,118.57 293.81,118.57 	"/>
	<polygon class="st1" points="120.02,292.08 120.02,293.48 120.27,293.23 120.27,291.83 	"/>
	<polygon class="st1" points="294.06,118.32 293.81,118.57 295.22,118.57 295.46,118.32 	"/>
	<polygon class="st1" points="120.27,300.07 120.27,301.47 303.46,118.57 302.06,118.57 	"/>
	<polygon class="st1" points="120.02,300.31 120.02,301.71 120.27,301.47 120.27,300.07 	"/>
	<polygon class="st1" points="302.31,118.32 302.06,118.57 303.46,118.57 303.71,118.32 	"/>
	<polygon class="st1" points="120.27,308.3 120.27,309.7 311.71,118.57 310.31,118.57 	"/>
	<polygon class="st1" points="310.55,118.32 310.31,118.57 311.71,118.57 311.96,118.32 	"/>
	<polygon class="st1" points="120.02,308.55 120.02,309.95 120.27,309.7 120.27,308.3 	"/>
	<polygon class="st1" points="120.27,316.53 120.27,317.93 319.96,118.57 318.55,118.57 	"/>
	<polygon class="st1" points="318.8,118.32 318.55,118.57 319.96,118.57 320.2,118.32 	"/>
	<polygon class="st1" points="120.02,316.78 120.02,318.18 120.27,317.93 120.27,316.53 	"/>
	<polygon class="st1" points="120.27,324.77 120.27,326.17 328.2,118.57 326.8,118.57 	"/>
	<polygon class="st1" points="120.02,325.02 120.02,326.42 120.27,326.17 120.27,324.77 	"/>
	<polygon class="st1" points="327.05,118.32 326.8,118.57 328.2,118.57 328.45,118.32 	"/>
	<polygon class="st1" points="120.27,333 120.27,334.4 333.24,121.77 332.53,121.08 	"/>
	<polygon class="st1" points="120.02,333.25 120.02,334.65 120.27,334.4 120.27,333 	"/>
	<polygon class="st1" points="332.71,120.9 332.53,121.08 333.24,121.77 333.42,121.6 	"/>
	<polygon class="st1" points="120.27,341.24 120.27,342.64 337.4,125.85 336.7,125.16 	"/>
	<polygon class="st1" points="336.87,124.98 336.7,125.16 337.4,125.85 337.58,125.68 	"/>
	<polygon class="st1" points="120.02,341.48 120.02,342.88 120.27,342.64 120.27,341.24 	"/>
	<polygon class="st1" points="120.27,349.47 120.27,350.87 341.56,129.93 340.86,129.24 	"/>
	<polygon class="st1" points="341.03,129.06 340.86,129.24 341.56,129.93 341.74,129.76 	"/>
	<polygon class="st1" points="120.02,349.72 120.02,351.12 120.27,350.87 120.27,349.47 	"/>
	<polygon class="st1" points="117.68,360.29 118.38,360.99 120.02,359.35 120.02,357.95 	"/>
	<polygon class="st1" points="120.27,357.7 120.27,359.1 345.72,134.01 345.02,133.32 	"/>
	<polygon class="st1" points="120.02,357.95 120.02,359.35 120.27,359.1 120.27,357.7 	"/>
	<polygon class="st1" points="345.19,133.14 345.02,133.32 345.72,134.01 345.9,133.84 	"/>
	<polygon class="st1" points="119.44,366.76 120.02,367.34 120.02,366.18 	"/>
	<polygon class="st1" points="349.66,138.31 348.96,137.61 120.27,365.94 120.27,367.34 	"/>
	<polygon class="st1" points="120.02,367.34 120.14,367.46 120.27,367.34 120.27,365.94 120.02,366.18 	"/>
	<polygon class="st1" points="412.98,371.05 413.68,371.75 416.84,368.6 416.84,367.2 	"/>
	<polygon class="st1" points="417.09,366.95 416.84,367.2 416.84,368.6 417.09,368.35 	"/>
	<g>
		<g>
			<path class="st3" d="M244.23,308.06c5.46,31.09,14.91,51.64,25.67,51.64c10.75,0,20.21-20.56,25.67-51.64
				c-8.19-5.73-16.83-12.49-25.67-20.12C261.07,295.57,252.42,302.33,244.23,308.06z"/>
			<path class="st1" d="M269.9,361.68c-11.61,0-21.67-19.42-27.62-53.28l-0.22-1.24l1.03-0.72c8.27-5.79,16.85-12.52,25.51-19.99
				l1.3-1.12l1.3,1.12c8.66,7.48,17.24,14.2,25.51,19.99l1.03,0.72l-0.22,1.24C291.57,342.26,281.5,361.68,269.9,361.68z
				 M246.4,308.95c5.37,29.67,14.55,48.77,23.49,48.77c8.95,0,18.12-19.1,23.49-48.77c-7.64-5.41-15.53-11.59-23.49-18.4
				C261.94,297.37,254.05,303.55,246.4,308.95z"/>
		</g>
		<g>
			<path class="st3" d="M295.56,184.36c-5.46-31.09-14.91-51.64-25.67-51.64c-10.75,0-20.21,20.56-25.67,51.64
				c8.19,5.73,16.83,12.49,25.67,20.12C278.73,196.85,287.37,190.1,295.56,184.36z"/>
			<path class="st1" d="M269.9,207.1l-1.3-1.12c-8.66-7.48-17.24-14.2-25.51-19.99l-1.03-0.72l0.22-1.24
				c5.95-33.86,16.01-53.28,27.62-53.28c11.61,0,21.67,19.42,27.62,53.28l0.22,1.24l-1.03,0.72c-8.27,5.79-16.85,12.52-25.51,19.99
				L269.9,207.1z M246.4,183.47c7.64,5.41,15.53,11.59,23.49,18.4c7.96-6.81,15.85-12.99,23.49-18.4
				c-5.37-29.67-14.55-48.77-23.49-48.77C260.95,134.7,251.77,153.8,246.4,183.47z"/>
		</g>
		<g>
			<path class="st3" d="M244.23,184.36c-25.87-18.12-47.11-25.99-54.72-18.4c-7.6,7.59,0.28,28.8,18.43,54.63
				c9.85-1.72,20.75-3.05,32.39-3.89C241.18,205.08,242.5,194.19,244.23,184.36z"/>
			<path class="st1" d="M207.05,222.76l-0.72-1.03c-19.77-28.14-26.41-48.98-18.21-57.16c8.2-8.19,29.07-1.56,57.26,18.18l1.03,0.72
				l-0.22,1.24c-1.74,9.92-3.04,20.73-3.87,32.14l-0.12,1.71l-1.71,0.12c-11.43,0.83-22.26,2.13-32.19,3.86L207.05,222.76z
				 M197.85,165.08c-3.04,0-5.39,0.75-6.93,2.28c-6.32,6.31,0.72,26.29,17.93,51.06c9.22-1.57,19.17-2.77,29.63-3.57
				c0.8-10.44,2-20.38,3.58-29.59C223.3,172.27,207.28,165.08,197.85,165.08z"/>
		</g>
		<g>
			<path class="st3" d="M295.56,308.06c25.87,18.12,47.11,25.99,54.71,18.4c7.6-7.59-0.28-28.8-18.43-54.63
				c-9.85,1.72-20.75,3.05-32.39,3.89C298.61,287.35,297.29,298.23,295.56,308.06z"/>
			<path class="st1" d="M341.89,331.29c-10.71,0-27.2-7.41-47.47-21.61l-1.03-0.72l0.22-1.24c1.74-9.92,3.04-20.73,3.87-32.14
				l0.12-1.71l1.71-0.12c11.43-0.83,22.26-2.13,32.19-3.86l1.24-0.22l0.72,1.03c19.77,28.14,26.41,48.98,18.21,57.16
				C349.38,330.16,346.07,331.29,341.89,331.29z M297.73,307.16c24.81,17.19,44.82,24.21,51.14,17.9
				c6.32-6.31-0.72-26.29-17.93-51.06c-9.22,1.57-19.17,2.77-29.63,3.57C300.5,288.01,299.3,297.95,297.73,307.16z"/>
		</g>
		<g>
			<path class="st3" d="M282.49,276.58c-4.22,3.97-8.43,7.76-12.6,11.36c8.83,7.63,17.48,14.38,25.67,20.12
				c1.73-9.83,3.05-20.72,3.9-32.34C293.95,276.12,288.29,276.41,282.49,276.58z"/>
			<path class="st1" d="M296.98,311.47l-2.55-1.79c-8.38-5.87-17.07-12.68-25.82-20.24l-1.73-1.5l1.73-1.5
				c4.19-3.62,8.4-7.42,12.53-11.3l0.55-0.52l0.75-0.02c5.69-0.17,11.37-0.46,16.88-0.85l2.29-0.17l-0.17,2.28
				c-0.84,11.54-2.15,22.49-3.92,32.54L296.98,311.47z M272.93,287.93c7.18,6.12,14.29,11.72,21.2,16.68
				c1.37-8.38,2.43-17.36,3.17-26.76c-4.6,0.3-9.3,0.53-14,0.68C279.88,281.75,276.4,284.9,272.93,287.93z"/>
		</g>
		<g>
			<path class="st3" d="M257.3,215.84c4.22-3.97,8.43-7.76,12.6-11.36c-8.83-7.63-17.48-14.38-25.67-20.12
				c-1.73,9.83-3.05,20.72-3.9,32.34C245.84,216.3,251.5,216.01,257.3,215.84z"/>
			<path class="st1" d="M238.19,218.84l0.17-2.28c0.84-11.54,2.15-22.49,3.92-32.54l0.54-3.07l2.55,1.79
				c8.38,5.87,17.07,12.68,25.82,20.24l1.73,1.5l-1.73,1.5c-4.19,3.62-8.4,7.42-12.53,11.3l-0.55,0.52l-0.75,0.02
				c-5.69,0.17-11.36,0.46-16.88,0.85L238.19,218.84z M245.66,187.81c-1.37,8.38-2.43,17.36-3.17,26.76c4.6-0.3,9.3-0.53,14-0.68
				c3.42-3.21,6.9-6.36,10.38-9.39C259.69,198.37,252.57,192.77,245.66,187.81z"/>
		</g>
		<g>
			<path class="st3" d="M207.95,220.59c-31.14,5.45-51.72,14.89-51.72,25.62c0,10.73,20.59,20.17,51.72,25.62
				c5.74-8.17,12.51-16.81,20.15-25.62C220.46,237.4,213.69,228.76,207.95,220.59z"/>
			<path class="st1" d="M208.85,274l-1.24-0.22c-33.91-5.94-53.37-15.99-53.37-27.57s19.45-21.64,53.37-27.57l1.24-0.22l0.72,1.03
				c5.8,8.25,12.54,16.82,20.03,25.46l1.12,1.3l-1.12,1.3c-7.49,8.64-14.23,17.21-20.03,25.46L208.85,274z M207.05,222.76
				c-29.72,5.36-48.85,14.52-48.85,23.45c0,8.93,19.13,18.09,48.85,23.45c5.41-7.63,11.61-15.51,18.43-23.45
				C218.66,238.27,212.47,230.39,207.05,222.76z"/>
		</g>
		<g>
			<path class="st3" d="M383.57,246.21c0-10.73-20.59-20.17-51.72-25.62c-5.74,8.17-12.51,16.81-20.15,25.62
				c7.64,8.82,14.41,17.45,20.15,25.62C362.98,266.38,383.57,256.95,383.57,246.21z"/>
			<path class="st1" d="M330.95,274l-0.72-1.03c-5.8-8.25-12.54-16.82-20.03-25.46l-1.12-1.3l1.12-1.3
				c7.49-8.64,14.23-17.21,20.03-25.46l0.72-1.03l1.24,0.22c33.91,5.94,53.37,15.99,53.37,27.57s-19.45,21.64-53.37,27.57
				L330.95,274z M314.31,246.21c6.82,7.95,13.01,15.82,18.43,23.45c29.72-5.36,48.85-14.52,48.85-23.45
				c0-8.93-19.13-18.09-48.85-23.45C327.33,230.39,321.14,238.27,314.31,246.21z"/>
		</g>
		<g>
			<path class="st3" d="M300.32,258.79c-0.17,5.79-0.46,11.44-0.86,16.94c11.64-0.84,22.54-2.16,32.39-3.89
				c-5.74-8.17-12.51-16.81-20.15-25.62C308.09,250.37,304.29,254.57,300.32,258.79z"/>
			<path class="st1" d="M297.31,277.87l0.17-2.28c0.4-5.5,0.69-11.17,0.86-16.85l0.02-0.75l0.52-0.55
				c3.9-4.14,7.71-8.35,11.32-12.51l1.5-1.73l1.5,1.73c7.58,8.74,14.4,17.42,20.27,25.78l1.79,2.55l-3.07,0.54
				c-10.06,1.76-21.02,3.08-32.59,3.91L297.31,277.87z M302.28,259.6c-0.15,4.7-0.38,9.39-0.68,13.98c9.42-0.74,18.41-1.8,26.8-3.17
				c-4.97-6.9-10.58-14.01-16.71-21.17C308.66,252.69,305.5,256.17,302.28,259.6z"/>
		</g>
		<g>
			<path class="st3" d="M239.48,233.64c0.17-5.79,0.46-11.44,0.86-16.94c-11.64,0.84-22.54,2.16-32.39,3.89
				c5.74,8.17,12.51,16.81,20.15,25.62C231.7,242.05,235.5,237.85,239.48,233.64z"/>
			<path class="st1" d="M228.1,249.24l-1.5-1.73c-7.58-8.74-14.4-17.42-20.27-25.78l-1.79-2.55l3.07-0.54
				c10.06-1.76,21.03-3.08,32.59-3.91l2.29-0.17l-0.17,2.28c-0.4,5.5-0.69,11.17-0.86,16.85l-0.02,0.75l-0.52,0.55
				c-3.9,4.13-7.71,8.34-11.32,12.51L228.1,249.24z M211.39,222.01c4.97,6.9,10.58,14.01,16.71,21.17
				c3.04-3.46,6.19-6.94,9.41-10.36c0.15-4.7,0.38-9.39,0.68-13.98C228.78,219.58,219.79,220.65,211.39,222.01z"/>
		</g>
		<g>
			<path class="st3" d="M257.3,215.84c-5.8,0.17-11.46,0.46-16.97,0.86c-0.4,5.49-0.69,11.15-0.86,16.94
				c2.84-3.01,5.76-6.02,8.78-9.03C251.27,221.59,254.29,218.68,257.3,215.84z"/>
			<path class="st1" d="M237.34,238.79l0.15-5.21c0.17-5.74,0.46-11.46,0.86-17.02l0.12-1.71l1.71-0.12
				c5.57-0.4,11.31-0.69,17.05-0.86l5.22-0.15l-3.8,3.58c-3.11,2.92-6.14,5.86-9.01,8.72c-2.88,2.87-5.82,5.9-8.74,8.99
				L237.34,238.79z M242.19,218.55c-0.22,3.27-0.4,6.6-0.55,9.94c1.74-1.81,3.48-3.57,5.2-5.29c1.72-1.71,3.49-3.45,5.3-5.19
				C248.8,218.15,245.47,218.33,242.19,218.55z"/>
		</g>
		<g>
			<path class="st3" d="M282.49,276.58c5.8-0.17,11.46-0.46,16.97-0.86c0.4-5.49,0.69-11.15,0.86-16.94
				c-2.84,3.01-5.76,6.02-8.78,9.03C288.53,270.83,285.51,273.75,282.49,276.58z"/>
			<path class="st1" d="M277.33,278.72l3.8-3.58c3.11-2.92,6.14-5.86,9.01-8.72c2.87-2.86,5.81-5.89,8.74-8.99l3.58-3.79l-0.16,5.21
				c-0.17,5.73-0.46,11.46-0.86,17.02l-0.12,1.71l-1.71,0.12c-5.57,0.4-11.31,0.69-17.05,0.86L277.33,278.72z M298.14,263.93
				c-1.75,1.81-3.49,3.58-5.2,5.29c-1.72,1.71-3.49,3.45-5.3,5.19c3.35-0.14,6.68-0.32,9.96-0.55
				C297.82,270.6,298,267.27,298.14,263.93z"/>
		</g>
		<g>
			<path class="st3" d="M331.85,220.59c18.15-25.83,26.03-47.04,18.43-54.63c-7.6-7.59-28.84,0.28-54.71,18.4
				c1.73,9.83,3.05,20.72,3.9,32.34C311.1,217.54,322,218.86,331.85,220.59z"/>
			<path class="st1" d="M332.75,222.76l-1.24-0.22c-9.93-1.74-20.76-3.04-32.19-3.86l-1.71-0.12l-0.12-1.71
				c-0.83-11.41-2.13-22.22-3.87-32.14l-0.22-1.24l1.03-0.72c28.19-19.74,49.05-26.37,57.26-18.18c8.2,8.19,1.56,29.02-18.21,57.16
				L332.75,222.76z M301.31,214.85c10.46,0.8,20.42,2,29.63,3.57c17.22-24.77,24.25-44.75,17.93-51.06
				c-6.32-6.31-26.33,0.71-51.14,17.9C299.3,194.47,300.5,204.41,301.31,214.85z"/>
		</g>
		<g>
			<path class="st3" d="M207.95,271.84c-18.15,25.83-26.03,47.04-18.43,54.63c7.6,7.59,28.84-0.28,54.72-18.4
				c-1.73-9.83-3.05-20.72-3.9-32.34C228.69,274.88,217.79,273.56,207.95,271.84z"/>
			<path class="st1" d="M197.9,331.29c-4.19,0-7.49-1.13-9.79-3.43c-8.2-8.19-1.56-29.02,18.21-57.16l0.72-1.03l1.24,0.22
				c9.93,1.74,20.76,3.04,32.19,3.86l1.71,0.12l0.12,1.71c0.83,11.41,2.13,22.22,3.87,32.14l0.22,1.24l-1.03,0.72
				C225.1,323.88,208.62,331.29,197.9,331.29z M208.85,274c-17.22,24.77-24.25,44.75-17.93,51.06c6.32,6.31,26.33-0.71,51.14-17.9
				c-1.57-9.21-2.77-19.14-3.58-29.59C228.02,276.77,218.07,275.57,208.85,274z"/>
		</g>
		<g>
			<path class="st3" d="M282.49,215.84c5.8,0.17,11.46,0.46,16.97,0.86c-0.84-11.62-2.17-22.51-3.9-32.34
				c-8.19,5.73-16.83,12.49-25.67,20.12C274.07,208.08,278.27,211.87,282.49,215.84z"/>
			<path class="st1" d="M301.6,218.84l-2.29-0.17c-5.52-0.4-11.2-0.69-16.88-0.85l-0.75-0.02l-0.55-0.52
				c-4.13-3.89-8.35-7.69-12.53-11.3l-1.73-1.5l1.73-1.5c8.76-7.56,17.45-14.37,25.82-20.24l2.55-1.79l0.54,3.07
				c1.77,10.05,3.08,21,3.92,32.54L301.6,218.84z M283.3,213.88c4.71,0.15,9.4,0.38,14,0.68c-0.74-9.4-1.8-18.38-3.17-26.76
				c-6.91,4.97-14.03,10.56-21.2,16.68C276.4,207.52,279.88,210.68,283.3,213.88z"/>
		</g>
		<g>
			<path class="st3" d="M257.3,276.58c-5.8-0.17-11.46-0.46-16.97-0.86c0.84,11.62,2.17,22.51,3.9,32.34
				c8.19-5.73,16.83-12.49,25.67-20.12C265.73,284.34,261.52,280.55,257.3,276.58z"/>
			<path class="st1" d="M242.82,311.47l-0.54-3.07c-1.77-10.05-3.08-21-3.92-32.54l-0.17-2.28l2.29,0.17
				c5.52,0.4,11.2,0.69,16.88,0.85l0.75,0.02l0.55,0.52c4.13,3.89,8.35,7.69,12.53,11.3l1.73,1.5l-1.73,1.5
				c-8.76,7.56-17.45,14.37-25.82,20.24L242.82,311.47z M242.49,277.86c0.74,9.4,1.8,18.38,3.17,26.76
				c6.91-4.96,14.03-10.56,21.2-16.68c-3.47-3.03-6.95-6.19-10.38-9.39C251.78,278.39,247.09,278.16,242.49,277.86z"/>
		</g>
		<g>
			<path class="st3" d="M282.49,215.84c-4.22-3.97-8.43-7.76-12.6-11.36c-4.17,3.6-8.38,7.39-12.6,11.36
				c4.14-0.12,8.34-0.19,12.6-0.19C274.15,215.65,278.35,215.72,282.49,215.84z"/>
			<path class="st1" d="M287.65,217.98l-5.22-0.16c-8.35-0.25-16.72-0.25-25.07,0l-5.22,0.16l3.8-3.58
				c4.17-3.92,8.43-7.76,12.66-11.42l1.3-1.12l1.3,1.12c4.23,3.65,8.49,7.49,12.66,11.42L287.65,217.98z M269.9,207.1
				c-2.47,2.16-4.95,4.38-7.42,6.63c4.96-0.09,9.87-0.09,14.84,0C274.85,211.48,272.37,209.26,269.9,207.1z"/>
		</g>
		<g>
			<path class="st3" d="M257.3,276.58c4.22,3.97,8.43,7.76,12.6,11.36c4.17-3.6,8.38-7.39,12.6-11.36
				c-4.14,0.12-8.34,0.19-12.6,0.19C265.64,276.77,261.44,276.71,257.3,276.58z"/>
			<path class="st1" d="M269.9,290.56l-1.3-1.12c-4.23-3.65-8.49-7.49-12.66-11.42l-3.8-3.58l5.22,0.16
				c8.35,0.25,16.73,0.25,25.07,0l5.22-0.16l-3.8,3.58c-4.17,3.92-8.43,7.76-12.66,11.42L269.9,290.56z M262.48,278.69
				c2.46,2.26,4.94,4.48,7.42,6.63c2.47-2.16,4.96-4.38,7.42-6.63C272.35,278.77,267.44,278.77,262.48,278.69z"/>
		</g>
		<g>
			<path class="st3" d="M239.48,258.79c-3.98-4.21-7.77-8.41-11.38-12.57c-7.64,8.82-14.41,17.45-20.15,25.62
				c9.85,1.72,20.75,3.05,32.39,3.89C239.94,270.23,239.65,264.58,239.48,258.79z"/>
			<path class="st1" d="M242.48,277.87l-2.29-0.17c-11.56-0.84-22.53-2.15-32.59-3.91l-3.07-0.54l1.79-2.55
				c5.88-8.36,12.7-17.04,20.27-25.78l1.5-1.73l1.5,1.73c3.62,4.18,7.43,8.39,11.32,12.51l0.52,0.55l0.02,0.75
				c0.17,5.68,0.46,11.35,0.86,16.85L242.48,277.87z M211.39,270.41c8.39,1.37,17.38,2.43,26.8,3.17c-0.3-4.59-0.53-9.28-0.68-13.98
				c-3.21-3.42-6.37-6.89-9.41-10.36C221.97,256.4,216.37,263.51,211.39,270.41z"/>
		</g>
		<g>
			<path class="st3" d="M300.32,233.64c3.98,4.21,7.77,8.41,11.38,12.57c7.64-8.82,14.41-17.45,20.15-25.62
				c-9.85-1.72-20.75-3.05-32.39-3.89C299.85,222.19,300.14,227.85,300.32,233.64z"/>
			<path class="st1" d="M311.7,249.24l-1.5-1.73c-3.61-4.17-7.42-8.38-11.32-12.51l-0.52-0.55l-0.02-0.75
				c-0.17-5.68-0.46-11.35-0.86-16.85l-0.17-2.28l2.29,0.17c11.56,0.84,22.53,2.15,32.59,3.91l3.07,0.54l-1.79,2.55
				c-5.88,8.36-12.7,17.04-20.27,25.78L311.7,249.24z M302.28,232.83c3.22,3.43,6.38,6.9,9.41,10.36
				c6.13-7.16,11.74-14.27,16.71-21.17c-8.39-1.37-17.38-2.43-26.8-3.17C301.9,223.44,302.13,228.13,302.28,232.83z"/>
		</g>
		<g>
			<path class="st3" d="M300.32,233.64c-0.17-5.79-0.46-11.44-0.86-16.94c-5.5-0.4-11.17-0.69-16.97-0.86
				c3.01,2.84,6.03,5.75,9.05,8.76C294.55,227.61,297.48,230.63,300.32,233.64z"/>
			<path class="st1" d="M302.45,238.79l-3.58-3.79c-2.93-3.1-5.87-6.13-8.74-8.99c-2.87-2.87-5.9-5.8-9.01-8.72l-3.8-3.58l5.22,0.15
				c5.74,0.17,11.48,0.46,17.05,0.86l1.71,0.12l0.12,1.71c0.4,5.56,0.69,11.29,0.86,17.02L302.45,238.79z M287.64,218.01
				c1.81,1.74,3.58,3.48,5.3,5.19c1.71,1.71,3.45,3.48,5.2,5.29c-0.14-3.34-0.33-6.67-0.55-9.94
				C294.32,218.33,290.99,218.15,287.64,218.01z"/>
		</g>
		<g>
			<path class="st3" d="M239.48,258.79c0.17,5.79,0.46,11.44,0.86,16.94c5.5,0.4,11.17,0.69,16.97,0.86
				c-3.01-2.84-6.03-5.75-9.05-8.76C245.24,264.81,242.32,261.8,239.48,258.79z"/>
			<path class="st1" d="M262.46,278.72l-5.22-0.15c-5.74-0.17-11.48-0.46-17.05-0.86l-1.71-0.12l-0.12-1.71
				c-0.4-5.56-0.69-11.29-0.86-17.02l-0.15-5.21l3.58,3.8c2.91,3.09,5.85,6.11,8.74,8.99c2.87,2.87,5.9,5.8,9.01,8.72L262.46,278.72
				z M242.19,273.87c3.28,0.22,6.61,0.4,9.95,0.55c-1.81-1.74-3.58-3.48-5.3-5.19c-1.72-1.72-3.46-3.49-5.2-5.29
				C241.79,267.27,241.97,270.6,242.19,273.87z"/>
		</g>
		<g>
			<path class="st3" d="M239.48,233.64c-3.98,4.21-7.77,8.41-11.38,12.57c3.61,4.16,7.4,8.36,11.38,12.57
				c-0.12-4.13-0.19-8.32-0.19-12.57S239.35,237.77,239.48,233.64z"/>
			<path class="st1" d="M241.61,263.94l-3.58-3.79c-3.93-4.16-7.78-8.42-11.44-12.64l-1.12-1.3l1.12-1.3
				c3.65-4.22,7.5-8.47,11.44-12.64l3.58-3.79l-0.15,5.21c-0.12,4.18-0.19,8.39-0.19,12.52c0,4.12,0.06,8.33,0.19,12.52
				L241.61,263.94z M230.72,246.21c2.16,2.47,4.38,4.95,6.64,7.41c-0.04-2.48-0.07-4.96-0.07-7.41c0-2.45,0.02-4.92,0.07-7.41
				C235.11,241.27,232.88,243.74,230.72,246.21z"/>
		</g>
		<g>
			<path class="st3" d="M300.5,246.21c0,4.25-0.07,8.44-0.19,12.57c3.98-4.21,7.77-8.41,11.38-12.57
				c-3.61-4.16-7.4-8.36-11.38-12.57C300.44,237.77,300.5,241.96,300.5,246.21z"/>
			<path class="st1" d="M298.18,263.94l0.15-5.21c0.12-4.18,0.19-8.39,0.19-12.52c0-4.12-0.06-8.33-0.19-12.52l-0.15-5.21l3.58,3.8
				c3.94,4.18,7.79,8.43,11.44,12.64l1.12,1.3l-1.12,1.3c-3.65,4.21-7.49,8.46-11.44,12.64L298.18,263.94z M302.42,238.81
				c0.04,2.48,0.07,4.96,0.07,7.41c0,2.45-0.02,4.92-0.07,7.41c2.27-2.46,4.49-4.94,6.64-7.41
				C306.91,243.75,304.69,241.27,302.42,238.81z"/>
		</g>
		<g>
			<path class="st3" d="M300.32,233.64c-2.84-3.01-5.76-6.02-8.78-9.03c-3.01-3.01-6.03-5.93-9.05-8.76
				c-4.14-0.12-8.34-0.19-12.6-0.19c-4.26,0-8.46,0.07-12.6,0.19c-3.01,2.84-6.03,5.75-9.05,8.76c-3.01,3.01-5.94,6.02-8.78,9.03
				c-0.12,4.13-0.19,8.32-0.19,12.57s0.07,8.45,0.19,12.57c2.84,3.01,5.76,6.02,8.78,9.03c3.01,3.01,6.03,5.93,9.05,8.76
				c4.14,0.12,8.34,0.19,12.6,0.19c4.26,0,8.46-0.07,12.6-0.19c3.01-2.84,6.03-5.75,9.05-8.76c3.01-3.01,5.94-6.02,8.78-9.03
				c0.12-4.13,0.19-8.32,0.19-12.57S300.44,237.77,300.32,233.64z"/>
			<path class="st1" d="M269.9,278.75c-4.18,0-8.44-0.06-12.65-0.19l-0.75-0.02l-0.55-0.52c-3.13-2.95-6.19-5.91-9.09-8.8
				c-2.91-2.91-5.88-5.96-8.82-9.08l-0.52-0.55l-0.02-0.75c-0.13-4.22-0.19-8.47-0.19-12.63s0.06-8.41,0.19-12.63l0.02-0.75
				l0.52-0.55c2.95-3.12,5.91-6.17,8.82-9.08c2.9-2.89,5.96-5.85,9.09-8.8l0.55-0.52l0.75-0.02c8.43-0.25,16.88-0.25,25.31,0
				l0.75,0.02l0.55,0.52c3.13,2.95,6.19,5.91,9.09,8.8c2.89,2.89,5.86,5.94,8.82,9.08l0.52,0.55l0.02,0.75
				c0.13,4.22,0.19,8.47,0.19,12.63c0,4.16-0.06,8.41-0.19,12.63l-0.02,0.75l-0.52,0.55c-2.96,3.13-5.92,6.19-8.82,9.08
				c-2.9,2.89-5.96,5.86-9.09,8.8l-0.55,0.52l-0.75,0.02C278.34,278.69,274.08,278.75,269.9,278.75z M258.11,274.62
				c7.86,0.22,15.71,0.22,23.57,0c2.91-2.75,5.76-5.51,8.46-8.2c2.7-2.69,5.46-5.53,8.22-8.44c0.11-3.94,0.17-7.89,0.17-11.76
				c0-3.87-0.06-7.83-0.17-11.76c-2.76-2.91-5.52-5.75-8.22-8.44c-2.7-2.7-5.54-5.45-8.46-8.2c-7.85-0.22-15.71-0.22-23.57,0
				c-2.91,2.75-5.76,5.51-8.46,8.2c-2.71,2.7-5.47,5.54-8.22,8.44c-0.11,3.94-0.17,7.89-0.17,11.76c0,3.88,0.06,7.83,0.17,11.76
				c2.74,2.9,5.5,5.73,8.22,8.44C252.36,269.12,255.2,271.87,258.11,274.62z"/>
		</g>
	</g>
	<g>
		<g>
			<defs>
				<path id="path2844_6_" d="M284.32,267.44c-0.07-0.03-0.25-0.32-0.44-0.71c-0.34-0.7-0.78-1.43-1.2-2.03
					c-0.25-0.36-0.25-0.37-0.23-0.73c0.03-0.43-0.06-0.77-0.27-1.04c-0.08-0.11-0.2-0.31-0.26-0.45l-0.11-0.26l0.17-0.18
					c0.14-0.14,0.19-0.28,0.29-0.73c0.08-0.37,0.11-0.62,0.08-0.76c-0.04-0.18-0.05-0.19-0.09-0.09c-0.02,0.07-0.09,0.13-0.13,0.15
					c-0.06,0.02-0.09,0.11-0.09,0.33c0,0.16-0.03,0.41-0.07,0.55c-0.06,0.22-0.1,0.27-0.35,0.41l-0.28,0.15l-0.12-0.14
					c-0.11-0.12-0.13-0.23-0.16-0.88c-0.04-0.77-0.01-0.96,0.16-1.11c0.08-0.07,0.12-0.06,0.29,0.02c0.11,0.05,0.2,0.12,0.2,0.16
					s0.03,0.01,0.06-0.07c0.03-0.08,0.04-0.2,0.02-0.27c-0.03-0.12-0.04-0.12-0.2-0.04l-0.17,0.09l0.01-0.27
					c0.01-0.15,0.04-0.28,0.06-0.3c0.07-0.05-0.4-1.99-0.5-2.07c-0.04-0.04-0.12-0.19-0.16-0.33c-0.04-0.15-0.13-0.37-0.2-0.5
					c-0.06-0.13-0.15-0.43-0.18-0.67c-0.07-0.47-0.28-1.05-0.54-1.46c-0.49-0.8-0.87-1.32-1.2-1.66l-0.37-0.38l-0.48,0.33
					c-0.69,0.47-0.9,0.65-0.9,0.76c0,0.06-0.04,0.17-0.08,0.26c-0.07,0.14-0.12,0.16-0.48,0.2c-0.24,0.02-0.52,0.01-0.7-0.02
					c-0.26-0.05-0.33-0.05-0.47,0.03c-0.1,0.06-0.22,0.08-0.3,0.06c-0.08-0.02-0.36-0.27-0.64-0.55c-0.56-0.58-0.92-1.18-0.92-1.53
					c0-0.25-0.39-1.04-0.65-1.34c-0.22-0.24-0.21-0.2-0.13-0.81c0.05-0.37,0.04-0.56-0.03-0.98c-0.05-0.28-0.13-0.59-0.18-0.68
					c-0.07-0.13-0.08-0.26-0.05-0.55c0.04-0.35,0.05-0.39,0.2-0.45c0.09-0.04,0.23-0.05,0.32-0.03c0.13,0.03,0.17,0.01,0.23-0.09
					c0.05-0.09,0.05-0.17,0.01-0.27l-0.06-0.14l0,0.16c0,0.12-0.02,0.15-0.09,0.13c-0.05-0.02-0.19,0.02-0.31,0.08
					c-0.12,0.06-0.23,0.11-0.25,0.11s-0.05-0.08-0.08-0.18c-0.05-0.16-0.05-0.15-0.06,0.17c0,0.33-0.16,0.8-0.27,0.8
					c-0.16,0-1.08-0.19-1.24-0.26c-0.46-0.19-0.45-0.08,0.02,0.32c0.45,0.37,0.78,0.55,1.02,0.56c0.28,0,0.44,0.09,0.52,0.28
					c0.04,0.1,0.09,0.17,0.11,0.17c0.08,0,0.06,0.47-0.02,0.76c-0.13,0.46-0.22,0.53-0.66,0.57c-0.43,0.04-0.43,0.05-0.27,0.47
					c0.1,0.25,0.11,0.33,0.05,0.61c-0.03,0.18-0.12,0.5-0.19,0.72l-0.13,0.4l0.2,0.21c0.11,0.11,0.29,0.4,0.41,0.63l0.22,0.43
					l0-0.26c0-0.31,0.15-0.83,0.27-0.96c0.08-0.09,0.07-0.1-0.11-0.1c-0.2,0-0.2,0-0.17,0.22c0.03,0.19-0.09,0.57-0.18,0.57
					c-0.01,0-0.09-0.12-0.16-0.27c-0.08-0.15-0.18-0.29-0.23-0.31c-0.09-0.04-0.09-0.07,0.01-0.69c0.03-0.17,0.05-0.18,0.35-0.25
					c0.49-0.1,1.24,0.08,1.24,0.31c0,0.04-0.05,0.14-0.11,0.22c-0.09,0.12-0.1,0.15-0.04,0.21c0.07,0.06,0.16,0.32,0.23,0.72
					c0.04,0.22,0.43,0.77,0.86,1.21l0.32,0.33l-0.01,0.66c-0.01,0.51-0.05,0.79-0.18,1.29c-0.2,0.75-0.38,1.06-0.88,1.5
					c-0.41,0.36-0.56,0.37-0.76,0.08c-0.11-0.16-0.11-0.17-0.02-0.71c0.06-0.37,0.14-0.64,0.25-0.84c0.2-0.37,0.27-0.97,0.17-1.64
					c-0.08-0.56-0.17-0.77-0.36-0.89c-0.08-0.05-0.22-0.15-0.32-0.23l-0.18-0.13l0.14,0.27c0.21,0.41,0.27,0.7,0.2,0.9
					c-0.05,0.14-0.04,0.21,0.06,0.41c0.15,0.29,0.12,0.63-0.11,1.1c-0.13,0.27-0.2,0.35-0.39,0.43c-0.13,0.06-0.25,0.16-0.27,0.22
					c-0.02,0.07-0.12,0.25-0.23,0.41l-0.2,0.29l-0.16-0.12c-0.11-0.08-0.15-0.14-0.12-0.21c0.02-0.05,0.05-0.31,0.06-0.57
					c0.02-0.37,0.01-0.45-0.04-0.34c-0.03,0.08-0.05,0.23-0.03,0.34c0.04,0.24-0.08,0.72-0.24,0.94c-0.19,0.27-0.36,0.64-0.33,0.72
					c0.02,0.04,0.01,0.08-0.02,0.08c-0.03,0-0.06,0.09-0.08,0.21c-0.08,0.51-0.14,0.62-0.43,0.8c-0.36,0.23-0.61,0.21-1.15-0.09
					l-0.38-0.21l0.04-0.31c0.02-0.17,0.07-0.37,0.12-0.44c0.07-0.11,0.06-0.13-0.09-0.19c-0.09-0.04-0.19-0.11-0.22-0.16
					c-0.04-0.07-0.05-0.06-0.05,0.06c0,0.08-0.04,0.16-0.09,0.18c-0.23,0.09-0.49-0.42-0.44-0.88c0.03-0.24,0.01-0.38-0.11-0.71
					c-0.08-0.22-0.15-0.48-0.15-0.57c0-0.27,0.26-0.83,0.5-1.09c0.12-0.13,0.23-0.29,0.22-0.34c0-0.15-0.26,0.16-0.61,0.73
					c-0.32,0.53-0.34,0.65-0.21,1.19c0.11,0.44,0.11,0.75-0.01,1.27l-0.09,0.43l0.14,0.31l0.14,0.31l-0.23,0.22
					c-0.13,0.12-0.3,0.24-0.37,0.27c-0.27,0.08-0.81,0.38-1.17,0.65c-0.43,0.33-0.51,0.31-0.68-0.16c-0.13-0.36-0.12-0.47,0.08-0.77
					c0.12-0.17,0.16-0.33,0.22-0.95c0.09-0.77,0.19-2.24,0.16-2.28c-0.01-0.01-0.1,0.15-0.2,0.36l-0.18,0.38l0.13,0.24l0.13,0.24
					l-0.13,0.51c-0.08,0.31-0.16,0.52-0.21,0.54c-0.07,0.03-0.08-0.02-0.05-0.29c0.02-0.2,0.01-0.35-0.03-0.41
					c-0.05-0.07-0.06-0.07-0.03,0.02c0.02,0.07-0.01,0.15-0.08,0.23l-0.12,0.12l0.12,0.31l0.12,0.31l-0.18,0.61
					c-0.19,0.66-0.5,1.2-0.68,1.2c-0.14,0-0.33-0.38-0.33-0.66c0-0.12,0.04-0.28,0.08-0.35c0.11-0.19,0.1-0.34-0.01-0.63l-0.1-0.24
					l-0.18,0.73c-0.11,0.45-0.18,0.87-0.19,1.1c0,0.37,0,0.37-0.2,0.46c-0.12,0.06-0.26,0.08-0.34,0.06
					c-0.13-0.03-0.14-0.05-0.11-0.32c0.04-0.36-0.09-0.71-0.26-0.71c-0.06,0-0.2-0.04-0.31-0.09c-0.26-0.13-0.34-0.38-0.32-1.09
					c0.01-0.44-0.01-0.58-0.1-0.79c-0.15-0.32-0.14-0.41,0.02-0.59l0.13-0.16l-0.14-0.28c-0.08-0.15-0.22-0.38-0.31-0.49
					c-0.12-0.15-0.17-0.29-0.2-0.52c-0.02-0.17-0.05-0.3-0.08-0.28c-0.02,0.01-0.03-0.02-0.01-0.09c0.03-0.13-0.27-2.98-0.32-3.03
					c-0.02-0.02-0.04-0.19-0.04-0.39c-0.01-0.33-0.03-0.39-0.28-0.75l-0.27-0.39l0.07-0.46c0.06-0.39,0.09-0.48,0.23-0.6
					c0.19-0.17,0.51-0.59,0.51-0.66c0-0.08-0.97-0.3-1.07-0.24c-0.12,0.06-0.55-0.08-0.65-0.21c-0.12-0.16-0.08-0.4,0.18-0.91
					c0.14-0.28,0.25-0.57,0.25-0.64c0-0.15-0.05-0.18-0.14-0.09c-0.07,0.07-1.21-0.89-1.3-1.1c-0.09-0.19-0.04-1.01,0.08-1.52
					c0.09-0.37,0.18-0.46,0.55-0.54c0.32-0.07,0.41-0.19,0.5-0.67l0.09-0.45l-0.19-0.15c-0.18-0.15-0.19-0.17-0.18-0.49
					c0.01-0.3,0.03-0.35,0.19-0.5l0.18-0.17l-0.12-0.3c-0.15-0.35-0.33-0.5-0.49-0.4c-0.08,0.05-0.22,0.04-0.6-0.02
					c-0.58-0.1-0.61-0.11-1.12-0.53c-0.36-0.3-0.91-0.61-1.08-0.61c-0.04,0-0.29-0.11-0.57-0.25l-0.5-0.25l-0.23-0.63
					c-0.18-0.49-0.22-0.65-0.17-0.73c0.03-0.06,0.04-0.14,0.02-0.17c-0.02-0.04-0.01-0.05,0.02-0.03c0.03,0.02,0.15-0.12,0.27-0.31
					c0.12-0.19,0.27-0.42,0.35-0.5c0.14-0.15,0.14-0.26-0.01-0.61c-0.03-0.07,0.03-0.12,0.26-0.21l0.3-0.12l0.23,0.26
					c0.13,0.14,0.3,0.28,0.39,0.31c0.14,0.05,0.17,0.04,0.32-0.13c0.09-0.1,0.29-0.44,0.44-0.76l0.28-0.57l-0.04-0.46
					c-0.03-0.36-0.02-0.47,0.04-0.51c0.13-0.08,1.67-0.06,2.39,0.04c1.08,0.14,0.97,0.18,1.18-0.33c0.1-0.24,0.18-0.46,0.16-0.49
					S261.11,233,261,233c-0.48,0-1.14-0.6-0.98-0.89c0.09-0.17,0.07-0.48-0.04-0.58c-0.18-0.16-0.34-0.17-0.54-0.05
					c-0.21,0.13-0.45,0.14-0.97,0.06c-0.33-0.06-0.37-0.08-0.72-0.44c-0.34-0.35-0.37-0.4-0.37-0.63c0-0.24-0.01-0.25-0.62-0.8
					c-0.34-0.31-0.66-0.57-0.7-0.58c-0.04-0.01-0.19,0.05-0.33,0.13c-0.16,0.1-0.29,0.14-0.37,0.11c-0.15-0.05-0.33-0.39-0.4-0.77
					c-0.05-0.26-0.03-0.35,0.15-0.94c0.36-1.16,0.34-1.12,0.98-1.44c0.57-0.28,0.67-0.36,0.67-0.59c0-0.21,0.27-0.5,0.64-0.67
					c0.19-0.09,0.38-0.16,0.42-0.16c0.09,0,0.04-0.22-0.11-0.52c-0.08-0.16-0.15-0.22-0.32-0.26c-0.52-0.13-0.51-0.13-0.56,0.03
					l-0.05,0.15l-0.1-0.15c-0.09-0.14-0.09-0.16,0.05-0.54c0.08-0.22,0.22-0.48,0.31-0.58l0.16-0.19l0,0.18
					c0,0.21,0.11,0.47,0.18,0.43c0.03-0.02,0.05,0,0.05,0.03c0,0.09,0.81,0.62,0.95,0.62c0.22,0,0.67,0.37,0.74,0.61
					c0.03,0.11,0.06,0.23,0.06,0.25c0,0.03,0.04,0.14,0.09,0.24c0.07,0.15,0.18,0.24,0.52,0.41c0.38,0.19,0.49,0.22,1.02,0.25
					l0.59,0.04l0.06-0.14c0.06-0.13,0.04-0.16-0.23-0.42c-0.16-0.15-0.35-0.29-0.41-0.31c-0.1-0.03-0.24-0.25-0.24-0.37
					c0-0.03,0.06-0.13,0.14-0.22l0.14-0.17l0.44,0.22l0.44,0.22l0.1,0.38c0.05,0.21,0.13,0.58,0.18,0.82
					c0.09,0.49,0.21,0.73,0.34,0.68c0.05-0.02,0.07-0.01,0.05,0.02c-0.03,0.05,0.69,0.64,1.04,0.86c0.08,0.05,0.4,0.11,0.74,0.15
					c0.67,0.07,0.78,0.04,1.08-0.27l0.16-0.17l-0.14-0.32l-0.14-0.32l0.15-0.31c0.18-0.36,0.35-0.41,0.46-0.14
					c0.09,0.21,0.21,0.32,0.43,0.37c0.12,0.03,0.22,0.11,0.32,0.25c0.25,0.38,0.53,0.98,0.62,1.36l0.09,0.37l-0.17,0.32l-0.17,0.32
					l0.2,0.71c0.22,0.78,0.25,1.13,0.12,1.7c-0.17,0.78-0.21,1.19-0.13,1.43c0.07,0.21,0.09,0.22,0.27,0.21
					c0.49-0.04,0.6-0.02,1.29,0.31c0.42,0.2,1.06,0.44,1.59,0.6l0.88,0.26l0.38-0.12l0.38-0.12l1.09,0.11
					c1.17,0.12,1.58,0.1,2.36-0.14c0.17-0.05,0.63-0.12,1.03-0.14c0.62-0.04,0.75-0.04,0.9,0.04c0.1,0.05,0.43,0.16,0.74,0.25
					c0.45,0.13,0.63,0.16,0.9,0.13c0.19-0.02,0.54-0.05,0.78-0.06c0.24-0.02,0.5-0.05,0.57-0.08c0.07-0.03,0.59-0.09,1.15-0.14
					c1.2-0.1,1.24-0.1,2.29,0.4c0.36,0.17,0.67,0.29,0.71,0.27c0.04-0.02,0.05-0.02,0.02,0.01c-0.02,0.02,0.11,0.14,0.3,0.27
					c0.29,0.19,0.33,0.25,0.33,0.4c0,0.14,0.05,0.22,0.28,0.42c0.23,0.2,0.28,0.27,0.28,0.42c0,0.15-0.03,0.2-0.22,0.31
					c-0.29,0.16-0.41,0.15-0.69-0.04c-0.26-0.19-0.58-0.31-0.7-0.26c-0.1,0.04-0.11,0.27-0.02,0.51c0.05,0.15,0.03,0.3-0.19,1.12
					c-0.25,0.91-0.26,0.95-0.49,1.16l-0.23,0.21l0.04,0.33c0.02,0.21,0.02,0.38-0.02,0.45c-0.03,0.06-0.28,0.24-0.55,0.39
					c-0.49,0.28-0.49,0.28-0.61,0.17c-0.1-0.09-0.13-0.1-0.21-0.04c-0.08,0.06-0.09,0.1-0.04,0.23c0.07,0.19-0.05,0.84-0.21,1.08
					c-0.09,0.14-0.1,0.14-0.56,0.1c-0.47-0.04-0.47-0.04-1.08,0.22c-0.69,0.29-1.1,0.33-1.49,0.17c-0.12-0.05-0.26-0.07-0.33-0.06
					c-0.13,0.03-0.8,0.88-0.99,1.27c-0.1,0.2-0.12,0.31-0.09,0.52c0.02,0.2,0,0.35-0.08,0.58c-0.1,0.25-0.15,0.32-0.31,0.37
					l-0.19,0.06v0.41c0,0.48,0.2,1.09,0.53,1.56c0.16,0.24,0.23,0.43,0.37,1.1c0.1,0.45,0.22,1.01,0.27,1.25
					c0.09,0.44,0.24,0.71,0.39,0.71c0.1,0,0.1-0.12,0-0.52c-0.11-0.41-0.11-0.56,0.01-0.78c0.05-0.1,0.1-0.19,0.11-0.2
					c0.04-0.05,0.36,0.17,0.44,0.3c0.05,0.08,0.2,0.5,0.34,0.94c0.21,0.67,0.28,0.82,0.46,1.01l0.21,0.21l0.4-0.2
					c0.5-0.25,0.71-0.41,0.9-0.68l0.15-0.21l-0.09-0.38c-0.05-0.21-0.14-0.48-0.2-0.6c-0.14-0.28-0.08-0.54,0.25-1.09
					c0.21-0.35,0.27-0.41,0.53-0.5c0.24-0.09,0.31-0.15,0.4-0.35c0.14-0.28,0.15-0.57,0.03-0.94c-0.1-0.34-0.1-0.62,0-0.84
					c0.04-0.09,0.08-0.14,0.08-0.1s0.11,0.18,0.24,0.32c0.26,0.28,0.5,0.34,0.61,0.14c0.03-0.06,0.19-0.22,0.35-0.34l0.29-0.23
					l0.09,0.12c0.08,0.11,0.11,0.12,0.34,0.06c0.33-0.09,0.37-0.03,0.42,0.63c0.05,0.7,0.18,1.34,0.33,1.69
					c0.07,0.16,0.17,0.45,0.22,0.64c0.1,0.35,0.1,0.35-0.03,0.58l-0.13,0.23l0.1,1.1l0.1,1.1l0.34,0.68
					c0.19,0.37,0.39,0.72,0.45,0.77c0.12,0.1,0.31,1.11,0.25,1.3c-0.02,0.06,0.06,0.49,0.16,0.96c0.23,0.99,0.34,1.94,0.29,2.43
					c-0.02,0.22,0,0.59,0.08,1.07c0.1,0.67,0.1,0.75,0.02,1.01c-0.16,0.51,0.02,2.78,0.28,3.58c0.08,0.24,0.15,0.46,0.15,0.49
					c0,0.07-0.47,0.32-0.54,0.3c-0.04-0.01-0.15-0.23-0.24-0.49l-0.17-0.46l-0.52-0.32c-0.29-0.18-0.56-0.32-0.6-0.32
					c-0.15,0-0.75,0.45-0.9,0.67c-0.19,0.29-0.24,0.6-0.2,1.26c0.03,0.41,0.06,0.56,0.18,0.78c0.13,0.23,0.15,0.34,0.17,0.84
					c0.01,0.54,0.03,0.6,0.22,0.95c0.17,0.32,0.32,0.85,0.26,0.91C284.45,267.49,284.39,267.47,284.32,267.44L284.32,267.44z
					 M269.1,257.51c0.13-0.17,0.26-0.27,0.33-0.27c0.07,0,0.15-0.02,0.19-0.04c0.08-0.05,0.2-0.35,0.14-0.35
					c-0.08,0-0.96,0.87-0.96,0.95C268.79,257.89,268.79,257.89,269.1,257.51z M264.74,256.92c-0.08-0.25-0.12-0.45-0.1-0.59
					c0.03-0.25-0.05-0.35-0.11-0.13c-0.04,0.17,0.06,0.69,0.19,0.96C264.87,257.47,264.88,257.33,264.74,256.92z M272.36,246.3
					c0.05-0.09,0.06-0.18,0.04-0.19c-0.06-0.03-0.71,0.09-0.77,0.15c-0.03,0.03,0.42,0.2,0.58,0.21
					C272.24,246.47,272.31,246.39,272.36,246.3L272.36,246.3z M271.74,258.15c-0.11-0.08-0.2-0.36-0.16-0.55
					c0.03-0.14,0.11-0.25,0.36-0.44c0.18-0.14,0.38-0.27,0.45-0.29c0.15-0.05,0.15-0.05-0.13,0.67
					C272.05,258.09,271.9,258.27,271.74,258.15L271.74,258.15z M275.36,257.42c0-0.02,0.04-0.18,0.08-0.35
					c0.05-0.19,0.1-0.79,0.14-1.57c0.04-0.97,0.07-1.28,0.13-1.34c0.07-0.07,0.09-0.06,0.17,0.05c0.05,0.07,0.2,0.47,0.34,0.89
					c0.25,0.74,0.25,0.77,0.2,1.14c-0.03,0.21-0.08,0.43-0.11,0.49c-0.06,0.1-0.84,0.72-0.92,0.72
					C275.38,257.46,275.36,257.45,275.36,257.42z M278.53,255.4c-0.17-0.14-0.58-0.92-0.58-1.11c0-0.24,0.22-0.92,0.3-0.92
					c0.13,0,0.84,1.28,0.91,1.64c0.03,0.17,0.02,0.23-0.11,0.35C278.89,255.52,278.7,255.54,278.53,255.4L278.53,255.4z"/>
			</defs>
			<clipPath id="path2844_00000179631416895869375070000009524937287622038685_">
				<use xlink:href="#path2844_6_"  style="overflow:visible;"/>
			</clipPath>
		</g>
		<g>
			<defs>
				<path id="path2844_5_" d="M284.32,267.44c-0.07-0.03-0.25-0.32-0.44-0.71c-0.34-0.7-0.78-1.43-1.2-2.03
					c-0.25-0.36-0.25-0.37-0.23-0.73c0.03-0.43-0.06-0.77-0.27-1.04c-0.08-0.11-0.2-0.31-0.26-0.45l-0.11-0.26l0.17-0.18
					c0.14-0.14,0.19-0.28,0.29-0.73c0.08-0.37,0.11-0.62,0.08-0.76c-0.04-0.18-0.05-0.19-0.09-0.09c-0.02,0.07-0.09,0.13-0.13,0.15
					c-0.06,0.02-0.09,0.11-0.09,0.33c0,0.16-0.03,0.41-0.07,0.55c-0.06,0.22-0.1,0.27-0.35,0.41l-0.28,0.15l-0.12-0.14
					c-0.11-0.12-0.13-0.23-0.16-0.88c-0.04-0.77-0.01-0.96,0.16-1.11c0.08-0.07,0.12-0.06,0.29,0.02c0.11,0.05,0.2,0.12,0.2,0.16
					s0.03,0.01,0.06-0.07c0.03-0.08,0.04-0.2,0.02-0.27c-0.03-0.12-0.04-0.12-0.2-0.04l-0.17,0.09l0.01-0.27
					c0.01-0.15,0.04-0.28,0.06-0.3c0.07-0.05-0.4-1.99-0.5-2.07c-0.04-0.04-0.12-0.19-0.16-0.33c-0.04-0.15-0.13-0.37-0.2-0.5
					c-0.06-0.13-0.15-0.43-0.18-0.67c-0.07-0.47-0.28-1.05-0.54-1.46c-0.49-0.8-0.87-1.32-1.2-1.66l-0.37-0.38l-0.48,0.33
					c-0.69,0.47-0.9,0.65-0.9,0.76c0,0.06-0.04,0.17-0.08,0.26c-0.07,0.14-0.12,0.16-0.48,0.2c-0.24,0.02-0.52,0.01-0.7-0.02
					c-0.26-0.05-0.33-0.05-0.47,0.03c-0.1,0.06-0.22,0.08-0.3,0.06c-0.08-0.02-0.36-0.27-0.64-0.55c-0.56-0.58-0.92-1.18-0.92-1.53
					c0-0.25-0.39-1.04-0.65-1.34c-0.22-0.24-0.21-0.2-0.13-0.81c0.05-0.37,0.04-0.56-0.03-0.98c-0.05-0.28-0.13-0.59-0.18-0.68
					c-0.07-0.13-0.08-0.26-0.05-0.55c0.04-0.35,0.05-0.39,0.2-0.45c0.09-0.04,0.23-0.05,0.32-0.03c0.13,0.03,0.17,0.01,0.23-0.09
					c0.05-0.09,0.05-0.17,0.01-0.27l-0.06-0.14l0,0.16c0,0.12-0.02,0.15-0.09,0.13c-0.05-0.02-0.19,0.02-0.31,0.08
					c-0.12,0.06-0.23,0.11-0.25,0.11s-0.05-0.08-0.08-0.18c-0.05-0.16-0.05-0.15-0.06,0.17c0,0.33-0.16,0.8-0.27,0.8
					c-0.16,0-1.08-0.19-1.24-0.26c-0.46-0.19-0.45-0.08,0.02,0.32c0.45,0.37,0.78,0.55,1.02,0.56c0.28,0,0.44,0.09,0.52,0.28
					c0.04,0.1,0.09,0.17,0.11,0.17c0.08,0,0.06,0.47-0.02,0.76c-0.13,0.46-0.22,0.53-0.66,0.57c-0.43,0.04-0.43,0.05-0.27,0.47
					c0.1,0.25,0.11,0.33,0.05,0.61c-0.03,0.18-0.12,0.5-0.19,0.72l-0.13,0.4l0.2,0.21c0.11,0.11,0.29,0.4,0.41,0.63l0.22,0.43
					l0-0.26c0-0.31,0.15-0.83,0.27-0.96c0.08-0.09,0.07-0.1-0.11-0.1c-0.2,0-0.2,0-0.17,0.22c0.03,0.19-0.09,0.57-0.18,0.57
					c-0.01,0-0.09-0.12-0.16-0.27c-0.08-0.15-0.18-0.29-0.23-0.31c-0.09-0.04-0.09-0.07,0.01-0.69c0.03-0.17,0.05-0.18,0.35-0.25
					c0.49-0.1,1.24,0.08,1.24,0.31c0,0.04-0.05,0.14-0.11,0.22c-0.09,0.12-0.1,0.15-0.04,0.21c0.07,0.06,0.16,0.32,0.23,0.72
					c0.04,0.22,0.43,0.77,0.86,1.21l0.32,0.33l-0.01,0.66c-0.01,0.51-0.05,0.79-0.18,1.29c-0.2,0.75-0.38,1.06-0.88,1.5
					c-0.41,0.36-0.56,0.37-0.76,0.08c-0.11-0.16-0.11-0.17-0.02-0.71c0.06-0.37,0.14-0.64,0.25-0.84c0.2-0.37,0.27-0.97,0.17-1.64
					c-0.08-0.56-0.17-0.77-0.36-0.89c-0.08-0.05-0.22-0.15-0.32-0.23l-0.18-0.13l0.14,0.27c0.21,0.41,0.27,0.7,0.2,0.9
					c-0.05,0.14-0.04,0.21,0.06,0.41c0.15,0.29,0.12,0.63-0.11,1.1c-0.13,0.27-0.2,0.35-0.39,0.43c-0.13,0.06-0.25,0.16-0.27,0.22
					c-0.02,0.07-0.12,0.25-0.23,0.41l-0.2,0.29l-0.16-0.12c-0.11-0.08-0.15-0.14-0.12-0.21c0.02-0.05,0.05-0.31,0.06-0.57
					c0.02-0.37,0.01-0.45-0.04-0.34c-0.03,0.08-0.05,0.23-0.03,0.34c0.04,0.24-0.08,0.72-0.24,0.94c-0.19,0.27-0.36,0.64-0.33,0.72
					c0.02,0.04,0.01,0.08-0.02,0.08c-0.03,0-0.06,0.09-0.08,0.21c-0.08,0.51-0.14,0.62-0.43,0.8c-0.36,0.23-0.61,0.21-1.15-0.09
					l-0.38-0.21l0.04-0.31c0.02-0.17,0.07-0.37,0.12-0.44c0.07-0.11,0.06-0.13-0.09-0.19c-0.09-0.04-0.19-0.11-0.22-0.16
					c-0.04-0.07-0.05-0.06-0.05,0.06c0,0.08-0.04,0.16-0.09,0.18c-0.23,0.09-0.49-0.42-0.44-0.88c0.03-0.24,0.01-0.38-0.11-0.71
					c-0.08-0.22-0.15-0.48-0.15-0.57c0-0.27,0.26-0.83,0.5-1.09c0.12-0.13,0.23-0.29,0.22-0.34c0-0.15-0.26,0.16-0.61,0.73
					c-0.32,0.53-0.34,0.65-0.21,1.19c0.11,0.44,0.11,0.75-0.01,1.27l-0.09,0.43l0.14,0.31l0.14,0.31l-0.23,0.22
					c-0.13,0.12-0.3,0.24-0.37,0.27c-0.27,0.08-0.81,0.38-1.17,0.65c-0.43,0.33-0.51,0.31-0.68-0.16c-0.13-0.36-0.12-0.47,0.08-0.77
					c0.12-0.17,0.16-0.33,0.22-0.95c0.09-0.77,0.19-2.24,0.16-2.28c-0.01-0.01-0.1,0.15-0.2,0.36l-0.18,0.38l0.13,0.24l0.13,0.24
					l-0.13,0.51c-0.08,0.31-0.16,0.52-0.21,0.54c-0.07,0.03-0.08-0.02-0.05-0.29c0.02-0.2,0.01-0.35-0.03-0.41
					c-0.05-0.07-0.06-0.07-0.03,0.02c0.02,0.07-0.01,0.15-0.08,0.23l-0.12,0.12l0.12,0.31l0.12,0.31l-0.18,0.61
					c-0.19,0.66-0.5,1.2-0.68,1.2c-0.14,0-0.33-0.38-0.33-0.66c0-0.12,0.04-0.28,0.08-0.35c0.11-0.19,0.1-0.34-0.01-0.63l-0.1-0.24
					l-0.18,0.73c-0.11,0.45-0.18,0.87-0.19,1.1c0,0.37,0,0.37-0.2,0.46c-0.12,0.06-0.26,0.08-0.34,0.06
					c-0.13-0.03-0.14-0.05-0.11-0.32c0.04-0.36-0.09-0.71-0.26-0.71c-0.06,0-0.2-0.04-0.31-0.09c-0.26-0.13-0.34-0.38-0.32-1.09
					c0.01-0.44-0.01-0.58-0.1-0.79c-0.15-0.32-0.14-0.41,0.02-0.59l0.13-0.16l-0.14-0.28c-0.08-0.15-0.22-0.38-0.31-0.49
					c-0.12-0.15-0.17-0.29-0.2-0.52c-0.02-0.17-0.05-0.3-0.08-0.28c-0.02,0.01-0.03-0.02-0.01-0.09c0.03-0.13-0.27-2.98-0.32-3.03
					c-0.02-0.02-0.04-0.19-0.04-0.39c-0.01-0.33-0.03-0.39-0.28-0.75l-0.27-0.39l0.07-0.46c0.06-0.39,0.09-0.48,0.23-0.6
					c0.19-0.17,0.51-0.59,0.51-0.66c0-0.08-0.97-0.3-1.07-0.24c-0.12,0.06-0.55-0.08-0.65-0.21c-0.12-0.16-0.08-0.4,0.18-0.91
					c0.14-0.28,0.25-0.57,0.25-0.64c0-0.15-0.05-0.18-0.14-0.09c-0.07,0.07-1.21-0.89-1.3-1.1c-0.09-0.19-0.04-1.01,0.08-1.52
					c0.09-0.37,0.18-0.46,0.55-0.54c0.32-0.07,0.41-0.19,0.5-0.67l0.09-0.45l-0.19-0.15c-0.18-0.15-0.19-0.17-0.18-0.49
					c0.01-0.3,0.03-0.35,0.19-0.5l0.18-0.17l-0.12-0.3c-0.15-0.35-0.33-0.5-0.49-0.4c-0.08,0.05-0.22,0.04-0.6-0.02
					c-0.58-0.1-0.61-0.11-1.12-0.53c-0.36-0.3-0.91-0.61-1.08-0.61c-0.04,0-0.29-0.11-0.57-0.25l-0.5-0.25l-0.23-0.63
					c-0.18-0.49-0.22-0.65-0.17-0.73c0.03-0.06,0.04-0.14,0.02-0.17c-0.02-0.04-0.01-0.05,0.02-0.03c0.03,0.02,0.15-0.12,0.27-0.31
					c0.12-0.19,0.27-0.42,0.35-0.5c0.14-0.15,0.14-0.26-0.01-0.61c-0.03-0.07,0.03-0.12,0.26-0.21l0.3-0.12l0.23,0.26
					c0.13,0.14,0.3,0.28,0.39,0.31c0.14,0.05,0.17,0.04,0.32-0.13c0.09-0.1,0.29-0.44,0.44-0.76l0.28-0.57l-0.04-0.46
					c-0.03-0.36-0.02-0.47,0.04-0.51c0.13-0.08,1.67-0.06,2.39,0.04c1.08,0.14,0.97,0.18,1.18-0.33c0.1-0.24,0.18-0.46,0.16-0.49
					S261.11,233,261,233c-0.48,0-1.14-0.6-0.98-0.89c0.09-0.17,0.07-0.48-0.04-0.58c-0.18-0.16-0.34-0.17-0.54-0.05
					c-0.21,0.13-0.45,0.14-0.97,0.06c-0.33-0.06-0.37-0.08-0.72-0.44c-0.34-0.35-0.37-0.4-0.37-0.63c0-0.24-0.01-0.25-0.62-0.8
					c-0.34-0.31-0.66-0.57-0.7-0.58c-0.04-0.01-0.19,0.05-0.33,0.13c-0.16,0.1-0.29,0.14-0.37,0.11c-0.15-0.05-0.33-0.39-0.4-0.77
					c-0.05-0.26-0.03-0.35,0.15-0.94c0.36-1.16,0.34-1.12,0.98-1.44c0.57-0.28,0.67-0.36,0.67-0.59c0-0.21,0.27-0.5,0.64-0.67
					c0.19-0.09,0.38-0.16,0.42-0.16c0.09,0,0.04-0.22-0.11-0.52c-0.08-0.16-0.15-0.22-0.32-0.26c-0.52-0.13-0.51-0.13-0.56,0.03
					l-0.05,0.15l-0.1-0.15c-0.09-0.14-0.09-0.16,0.05-0.54c0.08-0.22,0.22-0.48,0.31-0.58l0.16-0.19l0,0.18
					c0,0.21,0.11,0.47,0.18,0.43c0.03-0.02,0.05,0,0.05,0.03c0,0.09,0.81,0.62,0.95,0.62c0.22,0,0.67,0.37,0.74,0.61
					c0.03,0.11,0.06,0.23,0.06,0.25c0,0.03,0.04,0.14,0.09,0.24c0.07,0.15,0.18,0.24,0.52,0.41c0.38,0.19,0.49,0.22,1.02,0.25
					l0.59,0.04l0.06-0.14c0.06-0.13,0.04-0.16-0.23-0.42c-0.16-0.15-0.35-0.29-0.41-0.31c-0.1-0.03-0.24-0.25-0.24-0.37
					c0-0.03,0.06-0.13,0.14-0.22l0.14-0.17l0.44,0.22l0.44,0.22l0.1,0.38c0.05,0.21,0.13,0.58,0.18,0.82
					c0.09,0.49,0.21,0.73,0.34,0.68c0.05-0.02,0.07-0.01,0.05,0.02c-0.03,0.05,0.69,0.64,1.04,0.86c0.08,0.05,0.4,0.11,0.74,0.15
					c0.67,0.07,0.78,0.04,1.08-0.27l0.16-0.17l-0.14-0.32l-0.14-0.32l0.15-0.31c0.18-0.36,0.35-0.41,0.46-0.14
					c0.09,0.21,0.21,0.32,0.43,0.37c0.12,0.03,0.22,0.11,0.32,0.25c0.25,0.38,0.53,0.98,0.62,1.36l0.09,0.37l-0.17,0.32l-0.17,0.32
					l0.2,0.71c0.22,0.78,0.25,1.13,0.12,1.7c-0.17,0.78-0.21,1.19-0.13,1.43c0.07,0.21,0.09,0.22,0.27,0.21
					c0.49-0.04,0.6-0.02,1.29,0.31c0.42,0.2,1.06,0.44,1.59,0.6l0.88,0.26l0.38-0.12l0.38-0.12l1.09,0.11
					c1.17,0.12,1.58,0.1,2.36-0.14c0.17-0.05,0.63-0.12,1.03-0.14c0.62-0.04,0.75-0.04,0.9,0.04c0.1,0.05,0.43,0.16,0.74,0.25
					c0.45,0.13,0.63,0.16,0.9,0.13c0.19-0.02,0.54-0.05,0.78-0.06c0.24-0.02,0.5-0.05,0.57-0.08c0.07-0.03,0.59-0.09,1.15-0.14
					c1.2-0.1,1.24-0.1,2.29,0.4c0.36,0.17,0.67,0.29,0.71,0.27c0.04-0.02,0.05-0.02,0.02,0.01c-0.02,0.02,0.11,0.14,0.3,0.27
					c0.29,0.19,0.33,0.25,0.33,0.4c0,0.14,0.05,0.22,0.28,0.42c0.23,0.2,0.28,0.27,0.28,0.42c0,0.15-0.03,0.2-0.22,0.31
					c-0.29,0.16-0.41,0.15-0.69-0.04c-0.26-0.19-0.58-0.31-0.7-0.26c-0.1,0.04-0.11,0.27-0.02,0.51c0.05,0.15,0.03,0.3-0.19,1.12
					c-0.25,0.91-0.26,0.95-0.49,1.16l-0.23,0.21l0.04,0.33c0.02,0.21,0.02,0.38-0.02,0.45c-0.03,0.06-0.28,0.24-0.55,0.39
					c-0.49,0.28-0.49,0.28-0.61,0.17c-0.1-0.09-0.13-0.1-0.21-0.04c-0.08,0.06-0.09,0.1-0.04,0.23c0.07,0.19-0.05,0.84-0.21,1.08
					c-0.09,0.14-0.1,0.14-0.56,0.1c-0.47-0.04-0.47-0.04-1.08,0.22c-0.69,0.29-1.1,0.33-1.49,0.17c-0.12-0.05-0.26-0.07-0.33-0.06
					c-0.13,0.03-0.8,0.88-0.99,1.27c-0.1,0.2-0.12,0.31-0.09,0.52c0.02,0.2,0,0.35-0.08,0.58c-0.1,0.25-0.15,0.32-0.31,0.37
					l-0.19,0.06v0.41c0,0.48,0.2,1.09,0.53,1.56c0.16,0.24,0.23,0.43,0.37,1.1c0.1,0.45,0.22,1.01,0.27,1.25
					c0.09,0.44,0.24,0.71,0.39,0.71c0.1,0,0.1-0.12,0-0.52c-0.11-0.41-0.11-0.56,0.01-0.78c0.05-0.1,0.1-0.19,0.11-0.2
					c0.04-0.05,0.36,0.17,0.44,0.3c0.05,0.08,0.2,0.5,0.34,0.94c0.21,0.67,0.28,0.82,0.46,1.01l0.21,0.21l0.4-0.2
					c0.5-0.25,0.71-0.41,0.9-0.68l0.15-0.21l-0.09-0.38c-0.05-0.21-0.14-0.48-0.2-0.6c-0.14-0.28-0.08-0.54,0.25-1.09
					c0.21-0.35,0.27-0.41,0.53-0.5c0.24-0.09,0.31-0.15,0.4-0.35c0.14-0.28,0.15-0.57,0.03-0.94c-0.1-0.34-0.1-0.62,0-0.84
					c0.04-0.09,0.08-0.14,0.08-0.1s0.11,0.18,0.24,0.32c0.26,0.28,0.5,0.34,0.61,0.14c0.03-0.06,0.19-0.22,0.35-0.34l0.29-0.23
					l0.09,0.12c0.08,0.11,0.11,0.12,0.34,0.06c0.33-0.09,0.37-0.03,0.42,0.63c0.05,0.7,0.18,1.34,0.33,1.69
					c0.07,0.16,0.17,0.45,0.22,0.64c0.1,0.35,0.1,0.35-0.03,0.58l-0.13,0.23l0.1,1.1l0.1,1.1l0.34,0.68
					c0.19,0.37,0.39,0.72,0.45,0.77c0.12,0.1,0.31,1.11,0.25,1.3c-0.02,0.06,0.06,0.49,0.16,0.96c0.23,0.99,0.34,1.94,0.29,2.43
					c-0.02,0.22,0,0.59,0.08,1.07c0.1,0.67,0.1,0.75,0.02,1.01c-0.16,0.51,0.02,2.78,0.28,3.58c0.08,0.24,0.15,0.46,0.15,0.49
					c0,0.07-0.47,0.32-0.54,0.3c-0.04-0.01-0.15-0.23-0.24-0.49l-0.17-0.46l-0.52-0.32c-0.29-0.18-0.56-0.32-0.6-0.32
					c-0.15,0-0.75,0.45-0.9,0.67c-0.19,0.29-0.24,0.6-0.2,1.26c0.03,0.41,0.06,0.56,0.18,0.78c0.13,0.23,0.15,0.34,0.17,0.84
					c0.01,0.54,0.03,0.6,0.22,0.95c0.17,0.32,0.32,0.85,0.26,0.91C284.45,267.49,284.39,267.47,284.32,267.44L284.32,267.44z
					 M269.1,257.51c0.13-0.17,0.26-0.27,0.33-0.27c0.07,0,0.15-0.02,0.19-0.04c0.08-0.05,0.2-0.35,0.14-0.35
					c-0.08,0-0.96,0.87-0.96,0.95C268.79,257.89,268.79,257.89,269.1,257.51z M264.74,256.92c-0.08-0.25-0.12-0.45-0.1-0.59
					c0.03-0.25-0.05-0.35-0.11-0.13c-0.04,0.17,0.06,0.69,0.19,0.96C264.87,257.47,264.88,257.33,264.74,256.92z M272.36,246.3
					c0.05-0.09,0.06-0.18,0.04-0.19c-0.06-0.03-0.71,0.09-0.77,0.15c-0.03,0.03,0.42,0.2,0.58,0.21
					C272.24,246.47,272.31,246.39,272.36,246.3L272.36,246.3z M271.74,258.15c-0.11-0.08-0.2-0.36-0.16-0.55
					c0.03-0.14,0.11-0.25,0.36-0.44c0.18-0.14,0.38-0.27,0.45-0.29c0.15-0.05,0.15-0.05-0.13,0.67
					C272.05,258.09,271.9,258.27,271.74,258.15L271.74,258.15z M275.36,257.42c0-0.02,0.04-0.18,0.08-0.35
					c0.05-0.19,0.1-0.79,0.14-1.57c0.04-0.97,0.07-1.28,0.13-1.34c0.07-0.07,0.09-0.06,0.17,0.05c0.05,0.07,0.2,0.47,0.34,0.89
					c0.25,0.74,0.25,0.77,0.2,1.14c-0.03,0.21-0.08,0.43-0.11,0.49c-0.06,0.1-0.84,0.72-0.92,0.72
					C275.38,257.46,275.36,257.45,275.36,257.42z M278.53,255.4c-0.17-0.14-0.58-0.92-0.58-1.11c0-0.24,0.22-0.92,0.3-0.92
					c0.13,0,0.84,1.28,0.91,1.64c0.03,0.17,0.02,0.23-0.11,0.35C278.89,255.52,278.7,255.54,278.53,255.4L278.53,255.4z"/>
			</defs>
			
				<linearGradient id="path2844_00000143585419384904594620000007445409168099698861_" gradientUnits="userSpaceOnUse" x1="993.8144" y1="-3131.9524" x2="993.8144" y2="-3164.1672" gradientTransform="matrix(0 -1 1 0 3418.781 1238.9069)">
				<stop  offset="0" style="stop-color:#00ABB6"/>
				<stop  offset="0.904" style="stop-color:#00ADE7"/>
				<stop  offset="1" style="stop-color:#00AEEF"/>
			</linearGradient>
			
				<use xlink:href="#path2844_5_"  style="overflow:visible;fill:url(#path2844_00000143585419384904594620000007445409168099698861_);"/>
			<clipPath id="path2844_00000169547828774835726860000014509458866706461829_">
				<use xlink:href="#path2844_5_"  style="overflow:visible;"/>
			</clipPath>
			
				<linearGradient id="SVGID_1_" gradientUnits="userSpaceOnUse" x1="-2200.9907" y1="-6116.9736" x2="-2200.9907" y2="-6166.834" gradientTransform="matrix(1 0 0 1 2473.012 6386.3027)">
				<stop  offset="0" style="stop-color:#211D70"/>
				<stop  offset="0.1398" style="stop-color:#003D84"/>
				<stop  offset="0.314" style="stop-color:#005C9F"/>
				<stop  offset="0.4818" style="stop-color:#0077B8"/>
				<stop  offset="0.6386" style="stop-color:#008DCD"/>
				<stop  offset="0.7818" style="stop-color:#009DDE"/>
				<stop  offset="0.9069" style="stop-color:#00A8E9"/>
				<stop  offset="1" style="stop-color:#00AEEF"/>
			</linearGradient>
			
				<rect x="247.76" y="219.47" style="clip-path:url(#path2844_00000169547828774835726860000014509458866706461829_);fill:url(#SVGID_1_);" width="48.52" height="49.86"/>
		</g>
		<g>
			<defs>
				<path id="path2844_4_" d="M284.32,267.44c-0.07-0.03-0.25-0.32-0.44-0.71c-0.34-0.7-0.78-1.43-1.2-2.03
					c-0.25-0.36-0.25-0.37-0.23-0.73c0.03-0.43-0.06-0.77-0.27-1.04c-0.08-0.11-0.2-0.31-0.26-0.45l-0.11-0.26l0.17-0.18
					c0.14-0.14,0.19-0.28,0.29-0.73c0.08-0.37,0.11-0.62,0.08-0.76c-0.04-0.18-0.05-0.19-0.09-0.09c-0.02,0.07-0.09,0.13-0.13,0.15
					c-0.06,0.02-0.09,0.11-0.09,0.33c0,0.16-0.03,0.41-0.07,0.55c-0.06,0.22-0.1,0.27-0.35,0.41l-0.28,0.15l-0.12-0.14
					c-0.11-0.12-0.13-0.23-0.16-0.88c-0.04-0.77-0.01-0.96,0.16-1.11c0.08-0.07,0.12-0.06,0.29,0.02c0.11,0.05,0.2,0.12,0.2,0.16
					s0.03,0.01,0.06-0.07c0.03-0.08,0.04-0.2,0.02-0.27c-0.03-0.12-0.04-0.12-0.2-0.04l-0.17,0.09l0.01-0.27
					c0.01-0.15,0.04-0.28,0.06-0.3c0.07-0.05-0.4-1.99-0.5-2.07c-0.04-0.04-0.12-0.19-0.16-0.33c-0.04-0.15-0.13-0.37-0.2-0.5
					c-0.06-0.13-0.15-0.43-0.18-0.67c-0.07-0.47-0.28-1.05-0.54-1.46c-0.49-0.8-0.87-1.32-1.2-1.66l-0.37-0.38l-0.48,0.33
					c-0.69,0.47-0.9,0.65-0.9,0.76c0,0.06-0.04,0.17-0.08,0.26c-0.07,0.14-0.12,0.16-0.48,0.2c-0.24,0.02-0.52,0.01-0.7-0.02
					c-0.26-0.05-0.33-0.05-0.47,0.03c-0.1,0.06-0.22,0.08-0.3,0.06c-0.08-0.02-0.36-0.27-0.64-0.55c-0.56-0.58-0.92-1.18-0.92-1.53
					c0-0.25-0.39-1.04-0.65-1.34c-0.22-0.24-0.21-0.2-0.13-0.81c0.05-0.37,0.04-0.56-0.03-0.98c-0.05-0.28-0.13-0.59-0.18-0.68
					c-0.07-0.13-0.08-0.26-0.05-0.55c0.04-0.35,0.05-0.39,0.2-0.45c0.09-0.04,0.23-0.05,0.32-0.03c0.13,0.03,0.17,0.01,0.23-0.09
					c0.05-0.09,0.05-0.17,0.01-0.27l-0.06-0.14l0,0.16c0,0.12-0.02,0.15-0.09,0.13c-0.05-0.02-0.19,0.02-0.31,0.08
					c-0.12,0.06-0.23,0.11-0.25,0.11s-0.05-0.08-0.08-0.18c-0.05-0.16-0.05-0.15-0.06,0.17c0,0.33-0.16,0.8-0.27,0.8
					c-0.16,0-1.08-0.19-1.24-0.26c-0.46-0.19-0.45-0.08,0.02,0.32c0.45,0.37,0.78,0.55,1.02,0.56c0.28,0,0.44,0.09,0.52,0.28
					c0.04,0.1,0.09,0.17,0.11,0.17c0.08,0,0.06,0.47-0.02,0.76c-0.13,0.46-0.22,0.53-0.66,0.57c-0.43,0.04-0.43,0.05-0.27,0.47
					c0.1,0.25,0.11,0.33,0.05,0.61c-0.03,0.18-0.12,0.5-0.19,0.72l-0.13,0.4l0.2,0.21c0.11,0.11,0.29,0.4,0.41,0.63l0.22,0.43
					l0-0.26c0-0.31,0.15-0.83,0.27-0.96c0.08-0.09,0.07-0.1-0.11-0.1c-0.2,0-0.2,0-0.17,0.22c0.03,0.19-0.09,0.57-0.18,0.57
					c-0.01,0-0.09-0.12-0.16-0.27c-0.08-0.15-0.18-0.29-0.23-0.31c-0.09-0.04-0.09-0.07,0.01-0.69c0.03-0.17,0.05-0.18,0.35-0.25
					c0.49-0.1,1.24,0.08,1.24,0.31c0,0.04-0.05,0.14-0.11,0.22c-0.09,0.12-0.1,0.15-0.04,0.21c0.07,0.06,0.16,0.32,0.23,0.72
					c0.04,0.22,0.43,0.77,0.86,1.21l0.32,0.33l-0.01,0.66c-0.01,0.51-0.05,0.79-0.18,1.29c-0.2,0.75-0.38,1.06-0.88,1.5
					c-0.41,0.36-0.56,0.37-0.76,0.08c-0.11-0.16-0.11-0.17-0.02-0.71c0.06-0.37,0.14-0.64,0.25-0.84c0.2-0.37,0.27-0.97,0.17-1.64
					c-0.08-0.56-0.17-0.77-0.36-0.89c-0.08-0.05-0.22-0.15-0.32-0.23l-0.18-0.13l0.14,0.27c0.21,0.41,0.27,0.7,0.2,0.9
					c-0.05,0.14-0.04,0.21,0.06,0.41c0.15,0.29,0.12,0.63-0.11,1.1c-0.13,0.27-0.2,0.35-0.39,0.43c-0.13,0.06-0.25,0.16-0.27,0.22
					c-0.02,0.07-0.12,0.25-0.23,0.41l-0.2,0.29l-0.16-0.12c-0.11-0.08-0.15-0.14-0.12-0.21c0.02-0.05,0.05-0.31,0.06-0.57
					c0.02-0.37,0.01-0.45-0.04-0.34c-0.03,0.08-0.05,0.23-0.03,0.34c0.04,0.24-0.08,0.72-0.24,0.94c-0.19,0.27-0.36,0.64-0.33,0.72
					c0.02,0.04,0.01,0.08-0.02,0.08c-0.03,0-0.06,0.09-0.08,0.21c-0.08,0.51-0.14,0.62-0.43,0.8c-0.36,0.23-0.61,0.21-1.15-0.09
					l-0.38-0.21l0.04-0.31c0.02-0.17,0.07-0.37,0.12-0.44c0.07-0.11,0.06-0.13-0.09-0.19c-0.09-0.04-0.19-0.11-0.22-0.16
					c-0.04-0.07-0.05-0.06-0.05,0.06c0,0.08-0.04,0.16-0.09,0.18c-0.23,0.09-0.49-0.42-0.44-0.88c0.03-0.24,0.01-0.38-0.11-0.71
					c-0.08-0.22-0.15-0.48-0.15-0.57c0-0.27,0.26-0.83,0.5-1.09c0.12-0.13,0.23-0.29,0.22-0.34c0-0.15-0.26,0.16-0.61,0.73
					c-0.32,0.53-0.34,0.65-0.21,1.19c0.11,0.44,0.11,0.75-0.01,1.27l-0.09,0.43l0.14,0.31l0.14,0.31l-0.23,0.22
					c-0.13,0.12-0.3,0.24-0.37,0.27c-0.27,0.08-0.81,0.38-1.17,0.65c-0.43,0.33-0.51,0.31-0.68-0.16c-0.13-0.36-0.12-0.47,0.08-0.77
					c0.12-0.17,0.16-0.33,0.22-0.95c0.09-0.77,0.19-2.24,0.16-2.28c-0.01-0.01-0.1,0.15-0.2,0.36l-0.18,0.38l0.13,0.24l0.13,0.24
					l-0.13,0.51c-0.08,0.31-0.16,0.52-0.21,0.54c-0.07,0.03-0.08-0.02-0.05-0.29c0.02-0.2,0.01-0.35-0.03-0.41
					c-0.05-0.07-0.06-0.07-0.03,0.02c0.02,0.07-0.01,0.15-0.08,0.23l-0.12,0.12l0.12,0.31l0.12,0.31l-0.18,0.61
					c-0.19,0.66-0.5,1.2-0.68,1.2c-0.14,0-0.33-0.38-0.33-0.66c0-0.12,0.04-0.28,0.08-0.35c0.11-0.19,0.1-0.34-0.01-0.63l-0.1-0.24
					l-0.18,0.73c-0.11,0.45-0.18,0.87-0.19,1.1c0,0.37,0,0.37-0.2,0.46c-0.12,0.06-0.26,0.08-0.34,0.06
					c-0.13-0.03-0.14-0.05-0.11-0.32c0.04-0.36-0.09-0.71-0.26-0.71c-0.06,0-0.2-0.04-0.31-0.09c-0.26-0.13-0.34-0.38-0.32-1.09
					c0.01-0.44-0.01-0.58-0.1-0.79c-0.15-0.32-0.14-0.41,0.02-0.59l0.13-0.16l-0.14-0.28c-0.08-0.15-0.22-0.38-0.31-0.49
					c-0.12-0.15-0.17-0.29-0.2-0.52c-0.02-0.17-0.05-0.3-0.08-0.28c-0.02,0.01-0.03-0.02-0.01-0.09c0.03-0.13-0.27-2.98-0.32-3.03
					c-0.02-0.02-0.04-0.19-0.04-0.39c-0.01-0.33-0.03-0.39-0.28-0.75l-0.27-0.39l0.07-0.46c0.06-0.39,0.09-0.48,0.23-0.6
					c0.19-0.17,0.51-0.59,0.51-0.66c0-0.08-0.97-0.3-1.07-0.24c-0.12,0.06-0.55-0.08-0.65-0.21c-0.12-0.16-0.08-0.4,0.18-0.91
					c0.14-0.28,0.25-0.57,0.25-0.64c0-0.15-0.05-0.18-0.14-0.09c-0.07,0.07-1.21-0.89-1.3-1.1c-0.09-0.19-0.04-1.01,0.08-1.52
					c0.09-0.37,0.18-0.46,0.55-0.54c0.32-0.07,0.41-0.19,0.5-0.67l0.09-0.45l-0.19-0.15c-0.18-0.15-0.19-0.17-0.18-0.49
					c0.01-0.3,0.03-0.35,0.19-0.5l0.18-0.17l-0.12-0.3c-0.15-0.35-0.33-0.5-0.49-0.4c-0.08,0.05-0.22,0.04-0.6-0.02
					c-0.58-0.1-0.61-0.11-1.12-0.53c-0.36-0.3-0.91-0.61-1.08-0.61c-0.04,0-0.29-0.11-0.57-0.25l-0.5-0.25l-0.23-0.63
					c-0.18-0.49-0.22-0.65-0.17-0.73c0.03-0.06,0.04-0.14,0.02-0.17c-0.02-0.04-0.01-0.05,0.02-0.03c0.03,0.02,0.15-0.12,0.27-0.31
					c0.12-0.19,0.27-0.42,0.35-0.5c0.14-0.15,0.14-0.26-0.01-0.61c-0.03-0.07,0.03-0.12,0.26-0.21l0.3-0.12l0.23,0.26
					c0.13,0.14,0.3,0.28,0.39,0.31c0.14,0.05,0.17,0.04,0.32-0.13c0.09-0.1,0.29-0.44,0.44-0.76l0.28-0.57l-0.04-0.46
					c-0.03-0.36-0.02-0.47,0.04-0.51c0.13-0.08,1.67-0.06,2.39,0.04c1.08,0.14,0.97,0.18,1.18-0.33c0.1-0.24,0.18-0.46,0.16-0.49
					S261.11,233,261,233c-0.48,0-1.14-0.6-0.98-0.89c0.09-0.17,0.07-0.48-0.04-0.58c-0.18-0.16-0.34-0.17-0.54-0.05
					c-0.21,0.13-0.45,0.14-0.97,0.06c-0.33-0.06-0.37-0.08-0.72-0.44c-0.34-0.35-0.37-0.4-0.37-0.63c0-0.24-0.01-0.25-0.62-0.8
					c-0.34-0.31-0.66-0.57-0.7-0.58c-0.04-0.01-0.19,0.05-0.33,0.13c-0.16,0.1-0.29,0.14-0.37,0.11c-0.15-0.05-0.33-0.39-0.4-0.77
					c-0.05-0.26-0.03-0.35,0.15-0.94c0.36-1.16,0.34-1.12,0.98-1.44c0.57-0.28,0.67-0.36,0.67-0.59c0-0.21,0.27-0.5,0.64-0.67
					c0.19-0.09,0.38-0.16,0.42-0.16c0.09,0,0.04-0.22-0.11-0.52c-0.08-0.16-0.15-0.22-0.32-0.26c-0.52-0.13-0.51-0.13-0.56,0.03
					l-0.05,0.15l-0.1-0.15c-0.09-0.14-0.09-0.16,0.05-0.54c0.08-0.22,0.22-0.48,0.31-0.58l0.16-0.19l0,0.18
					c0,0.21,0.11,0.47,0.18,0.43c0.03-0.02,0.05,0,0.05,0.03c0,0.09,0.81,0.62,0.95,0.62c0.22,0,0.67,0.37,0.74,0.61
					c0.03,0.11,0.06,0.23,0.06,0.25c0,0.03,0.04,0.14,0.09,0.24c0.07,0.15,0.18,0.24,0.52,0.41c0.38,0.19,0.49,0.22,1.02,0.25
					l0.59,0.04l0.06-0.14c0.06-0.13,0.04-0.16-0.23-0.42c-0.16-0.15-0.35-0.29-0.41-0.31c-0.1-0.03-0.24-0.25-0.24-0.37
					c0-0.03,0.06-0.13,0.14-0.22l0.14-0.17l0.44,0.22l0.44,0.22l0.1,0.38c0.05,0.21,0.13,0.58,0.18,0.82
					c0.09,0.49,0.21,0.73,0.34,0.68c0.05-0.02,0.07-0.01,0.05,0.02c-0.03,0.05,0.69,0.64,1.04,0.86c0.08,0.05,0.4,0.11,0.74,0.15
					c0.67,0.07,0.78,0.04,1.08-0.27l0.16-0.17l-0.14-0.32l-0.14-0.32l0.15-0.31c0.18-0.36,0.35-0.41,0.46-0.14
					c0.09,0.21,0.21,0.32,0.43,0.37c0.12,0.03,0.22,0.11,0.32,0.25c0.25,0.38,0.53,0.98,0.62,1.36l0.09,0.37l-0.17,0.32l-0.17,0.32
					l0.2,0.71c0.22,0.78,0.25,1.13,0.12,1.7c-0.17,0.78-0.21,1.19-0.13,1.43c0.07,0.21,0.09,0.22,0.27,0.21
					c0.49-0.04,0.6-0.02,1.29,0.31c0.42,0.2,1.06,0.44,1.59,0.6l0.88,0.26l0.38-0.12l0.38-0.12l1.09,0.11
					c1.17,0.12,1.58,0.1,2.36-0.14c0.17-0.05,0.63-0.12,1.03-0.14c0.62-0.04,0.75-0.04,0.9,0.04c0.1,0.05,0.43,0.16,0.74,0.25
					c0.45,0.13,0.63,0.16,0.9,0.13c0.19-0.02,0.54-0.05,0.78-0.06c0.24-0.02,0.5-0.05,0.57-0.08c0.07-0.03,0.59-0.09,1.15-0.14
					c1.2-0.1,1.24-0.1,2.29,0.4c0.36,0.17,0.67,0.29,0.71,0.27c0.04-0.02,0.05-0.02,0.02,0.01c-0.02,0.02,0.11,0.14,0.3,0.27
					c0.29,0.19,0.33,0.25,0.33,0.4c0,0.14,0.05,0.22,0.28,0.42c0.23,0.2,0.28,0.27,0.28,0.42c0,0.15-0.03,0.2-0.22,0.31
					c-0.29,0.16-0.41,0.15-0.69-0.04c-0.26-0.19-0.58-0.31-0.7-0.26c-0.1,0.04-0.11,0.27-0.02,0.51c0.05,0.15,0.03,0.3-0.19,1.12
					c-0.25,0.91-0.26,0.95-0.49,1.16l-0.23,0.21l0.04,0.33c0.02,0.21,0.02,0.38-0.02,0.45c-0.03,0.06-0.28,0.24-0.55,0.39
					c-0.49,0.28-0.49,0.28-0.61,0.17c-0.1-0.09-0.13-0.1-0.21-0.04c-0.08,0.06-0.09,0.1-0.04,0.23c0.07,0.19-0.05,0.84-0.21,1.08
					c-0.09,0.14-0.1,0.14-0.56,0.1c-0.47-0.04-0.47-0.04-1.08,0.22c-0.69,0.29-1.1,0.33-1.49,0.17c-0.12-0.05-0.26-0.07-0.33-0.06
					c-0.13,0.03-0.8,0.88-0.99,1.27c-0.1,0.2-0.12,0.31-0.09,0.52c0.02,0.2,0,0.35-0.08,0.58c-0.1,0.25-0.15,0.32-0.31,0.37
					l-0.19,0.06v0.41c0,0.48,0.2,1.09,0.53,1.56c0.16,0.24,0.23,0.43,0.37,1.1c0.1,0.45,0.22,1.01,0.27,1.25
					c0.09,0.44,0.24,0.71,0.39,0.71c0.1,0,0.1-0.12,0-0.52c-0.11-0.41-0.11-0.56,0.01-0.78c0.05-0.1,0.1-0.19,0.11-0.2
					c0.04-0.05,0.36,0.17,0.44,0.3c0.05,0.08,0.2,0.5,0.34,0.94c0.21,0.67,0.28,0.82,0.46,1.01l0.21,0.21l0.4-0.2
					c0.5-0.25,0.71-0.41,0.9-0.68l0.15-0.21l-0.09-0.38c-0.05-0.21-0.14-0.48-0.2-0.6c-0.14-0.28-0.08-0.54,0.25-1.09
					c0.21-0.35,0.27-0.41,0.53-0.5c0.24-0.09,0.31-0.15,0.4-0.35c0.14-0.28,0.15-0.57,0.03-0.94c-0.1-0.34-0.1-0.62,0-0.84
					c0.04-0.09,0.08-0.14,0.08-0.1s0.11,0.18,0.24,0.32c0.26,0.28,0.5,0.34,0.61,0.14c0.03-0.06,0.19-0.22,0.35-0.34l0.29-0.23
					l0.09,0.12c0.08,0.11,0.11,0.12,0.34,0.06c0.33-0.09,0.37-0.03,0.42,0.63c0.05,0.7,0.18,1.34,0.33,1.69
					c0.07,0.16,0.17,0.45,0.22,0.64c0.1,0.35,0.1,0.35-0.03,0.58l-0.13,0.23l0.1,1.1l0.1,1.1l0.34,0.68
					c0.19,0.37,0.39,0.72,0.45,0.77c0.12,0.1,0.31,1.11,0.25,1.3c-0.02,0.06,0.06,0.49,0.16,0.96c0.23,0.99,0.34,1.94,0.29,2.43
					c-0.02,0.22,0,0.59,0.08,1.07c0.1,0.67,0.1,0.75,0.02,1.01c-0.16,0.51,0.02,2.78,0.28,3.58c0.08,0.24,0.15,0.46,0.15,0.49
					c0,0.07-0.47,0.32-0.54,0.3c-0.04-0.01-0.15-0.23-0.24-0.49l-0.17-0.46l-0.52-0.32c-0.29-0.18-0.56-0.32-0.6-0.32
					c-0.15,0-0.75,0.45-0.9,0.67c-0.19,0.29-0.24,0.6-0.2,1.26c0.03,0.41,0.06,0.56,0.18,0.78c0.13,0.23,0.15,0.34,0.17,0.84
					c0.01,0.54,0.03,0.6,0.22,0.95c0.17,0.32,0.32,0.85,0.26,0.91C284.45,267.49,284.39,267.47,284.32,267.44L284.32,267.44z
					 M269.1,257.51c0.13-0.17,0.26-0.27,0.33-0.27c0.07,0,0.15-0.02,0.19-0.04c0.08-0.05,0.2-0.35,0.14-0.35
					c-0.08,0-0.96,0.87-0.96,0.95C268.79,257.89,268.79,257.89,269.1,257.51z M264.74,256.92c-0.08-0.25-0.12-0.45-0.1-0.59
					c0.03-0.25-0.05-0.35-0.11-0.13c-0.04,0.17,0.06,0.69,0.19,0.96C264.87,257.47,264.88,257.33,264.74,256.92z M272.36,246.3
					c0.05-0.09,0.06-0.18,0.04-0.19c-0.06-0.03-0.71,0.09-0.77,0.15c-0.03,0.03,0.42,0.2,0.58,0.21
					C272.24,246.47,272.31,246.39,272.36,246.3L272.36,246.3z M271.74,258.15c-0.11-0.08-0.2-0.36-0.16-0.55
					c0.03-0.14,0.11-0.25,0.36-0.44c0.18-0.14,0.38-0.27,0.45-0.29c0.15-0.05,0.15-0.05-0.13,0.67
					C272.05,258.09,271.9,258.27,271.74,258.15L271.74,258.15z M275.36,257.42c0-0.02,0.04-0.18,0.08-0.35
					c0.05-0.19,0.1-0.79,0.14-1.57c0.04-0.97,0.07-1.28,0.13-1.34c0.07-0.07,0.09-0.06,0.17,0.05c0.05,0.07,0.2,0.47,0.34,0.89
					c0.25,0.74,0.25,0.77,0.2,1.14c-0.03,0.21-0.08,0.43-0.11,0.49c-0.06,0.1-0.84,0.72-0.92,0.72
					C275.38,257.46,275.36,257.45,275.36,257.42z M278.53,255.4c-0.17-0.14-0.58-0.92-0.58-1.11c0-0.24,0.22-0.92,0.3-0.92
					c0.13,0,0.84,1.28,0.91,1.64c0.03,0.17,0.02,0.23-0.11,0.35C278.89,255.52,278.7,255.54,278.53,255.4L278.53,255.4z"/>
			</defs>
			<clipPath id="path2844_00000114792601709333731880000016121169873719692205_">
				<use xlink:href="#path2844_4_"  style="overflow:visible;"/>
			</clipPath>
		</g>
	</g>
</g>
</svg>
